<svg width="496" height="496" viewBox="0 0 496 496" fill="none" xmlns="http://www.w3.org/2000/svg">
<g clip-path="url(#clip0_25_2)">
<path fill-rule="evenodd" clip-rule="evenodd" d="M496 248C496 313.774 469.872 376.853 423.362 423.362C376.853 469.872 313.774 496 248 496C182.226 496 119.147 469.872 72.6375 423.362C26.1285 376.853 0 313.774 0 248C0 182.226 26.1285 119.147 72.6375 72.6375C119.147 26.1285 182.226 0 248 0C313.774 0 376.853 26.1285 423.362 72.6375C469.872 119.147 496 182.226 496 248ZM494 249C493.737 313.897 467.84 376.061 421.95 421.95C376.061 467.84 313.897 493.737 249 494V484H248C289.072 484.077 329.446 473.389 365.1 453L370.1 461.5L371.9 460.5L366.9 451.9C402.062 431.335 431.335 402.062 451.9 366.9L460.5 371.9L461.5 370.1L452.9 365.1C473.324 329.456 484.047 289.081 484 248V249H494ZM494 247H484V248C484.095 206.894 473.406 166.483 453 130.8L461.5 125.8L460.5 124.1L451.9 129.1C431.335 93.9382 402.062 64.6648 366.9 44.1L371.9 35.5L370.1 34.5L365.1 43.1C329.456 22.6763 289.081 11.9533 248 12H249V2C313.897 2.26328 376.061 28.1602 421.95 74.0497C467.84 119.939 493.737 182.103 494 247ZM248 12H247V2C182.103 2.26328 119.939 28.1602 74.0497 74.0497C28.1602 119.939 2.26328 182.103 2 247H12V249H2C2.26328 313.897 28.1602 376.061 74.0497 421.95C119.939 467.84 182.103 493.737 247 494V484H248C206.894 484.095 166.483 473.406 130.8 453L125.8 461.5L124.1 460.5L129.1 451.9C93.9382 431.335 64.6648 402.062 44.1 366.9L35.5 371.9L34.5 370.1L43.1 365.1C22.6763 329.456 11.9533 289.081 12 248C11.9053 206.894 22.5943 166.483 43 130.8L34.5 125.8L35.5 124.1L44.1 129.1C64.6648 93.9382 93.9382 64.6648 129.1 44.1L124.1 35.5L125.9 34.5L130.9 43.1C166.544 22.6763 206.919 11.9533 248 12ZM482 248C482 310.061 457.346 369.579 413.463 413.463C369.579 457.346 310.061 482 248 482C185.939 482 126.421 457.346 82.537 413.463C38.6535 369.579 14 310.061 14 248C14 185.939 38.6535 126.421 82.537 82.537C126.421 38.6535 185.939 14 248 14C310.061 14 369.579 38.6535 413.463 82.537C457.346 126.421 482 185.939 482 248Z" fill="#767522"/>
<path fill-rule="evenodd" clip-rule="evenodd" d="M69.5999 351C126.48 449.53 252.47 483.29 351 426.4C449.52 369.52 483.28 243.53 426.4 145C369.5 46.47 243.52 12.71 145 69.6C46.4699 126.48 12.6999 252.47 69.5999 351ZM67.8599 352C125.3 451.49 252.51 485.57 352 428.13C451.48 370.7 485.57 243.5 428.13 144C370.69 44.52 243.48 10.43 144 67.87C44.4999 125.3 10.4299 252.5 67.8599 352Z" fill="#767522"/>
<path fill-rule="evenodd" clip-rule="evenodd" d="M45.3499 365C109.96 476.92 253.08 515.27 365 450.65C476.92 386.03 515.26 242.92 450.65 131C386.03 19.08 242.92 -19.27 131 45.35C19.0799 109.97 -19.2701 253.08 45.3499 365ZM43.6099 366C108.78 478.88 253.11 517.55 366 452.38C478.87 387.21 517.55 242.88 452.38 130C387.2 17.12 242.88 -21.55 130 43.62C17.1199 108.79 -21.5601 253.12 43.5999 366H43.6099Z" fill="#767522"/>
<path fill-rule="evenodd" clip-rule="evenodd" d="M427.63 143.13L450.15 130.13L451.15 131.87L428.63 144.87L427.63 143.13ZM456 247H482V249H456V247ZM428.63 351.13L451.14 364.13L450.14 365.87L427.63 352.87L428.63 351.13ZM351.13 67.37L364.13 44.85L365.86 45.85L352.86 68.37L351.13 67.37ZM247 40V14H249V40H247ZM143.13 68.36L130.13 45.85L131.86 44.85L144.86 67.36L143.13 68.36ZM67.36 144.86L44.84 131.86L45.84 130.13L68.36 143.13L67.36 144.86ZM40 249H14V247H40V249ZM68.36 352.86L45.84 365.86L44.84 364.13L67.36 351.13L68.36 352.86ZM144.86 428.63L131.86 451.15L130.13 450.15L143.13 427.63L144.86 428.63ZM249 456V482H247V456H249ZM352.86 427.63L365.86 450.15L364.13 451.15L351.13 428.63L352.86 427.63Z" fill="#767522"/>
<path d="M174.75 36.2999L176.64 35.5199C176.873 35.424 177.124 35.3754 177.376 35.3768C177.629 35.3782 177.879 35.4297 178.111 35.5283C178.344 35.6269 178.554 35.7706 178.731 35.9511C178.907 36.1316 179.046 36.3453 179.14 36.58C179.246 36.8127 179.303 37.0646 179.308 37.3203C179.313 37.5759 179.266 37.8299 179.17 38.0667C179.073 38.3035 178.929 38.5182 178.747 38.6976C178.565 38.8769 178.348 39.0173 178.11 39.11L177.24 39.4599L178.24 41.8899L177.21 42.2999L174.75 36.2999ZM176.98 36.56L176.18 36.8899L176.82 38.4399L177.62 38.1199C177.724 38.0782 177.819 38.0163 177.898 37.9378C177.978 37.8593 178.042 37.7658 178.086 37.6627C178.129 37.5595 178.152 37.4487 178.153 37.3367C178.154 37.2247 178.132 37.1137 178.09 37.0099C178.047 36.9069 177.985 36.8134 177.906 36.7348C177.826 36.6563 177.732 36.5942 177.629 36.5524C177.526 36.5105 177.415 36.4896 177.304 36.4909C177.192 36.4922 177.082 36.5157 176.98 36.56ZM181.56 33.7299L183.75 39.8499L182.71 40.22L180.52 34.0999L181.55 33.7299H181.56ZM185.32 37.36L185.22 37.0099L186.26 36.6799L186.37 37.04C186.53 37.54 187.06 37.7399 187.54 37.5899C187.99 37.4499 188.3 37.03 188.17 36.61C188 36.07 187.56 36.0299 186.79 35.8899L186.35 35.8199C185.55 35.6799 184.69 35.3399 184.41 34.4399C184.1 33.4299 184.74 32.4899 185.76 32.1699C186.006 32.0821 186.267 32.0458 186.527 32.0634C186.788 32.081 187.042 32.1521 187.274 32.2722C187.505 32.3923 187.71 32.5588 187.874 32.7615C188.039 32.9641 188.16 33.1985 188.23 33.45L188.35 33.83L187.29 34.1599L187.19 33.79C187.02 33.28 186.53 33.07 186.05 33.22C185.6 33.36 185.36 33.7599 185.49 34.1599C185.61 34.5699 186.05 34.6799 186.65 34.7599L187.14 34.83C188.24 34.99 189 35.5099 189.24 36.3199C189.58 37.3899 188.86 38.3199 187.86 38.6199C186.87 38.9299 185.69 38.56 185.32 37.36ZM195.72 34.1899L196.92 33.8899C196.873 34.5939 196.604 35.2648 196.151 35.8058C195.698 36.3468 195.085 36.7299 194.4 36.9C193.967 37.0054 193.518 37.024 193.078 36.9547C192.638 36.8854 192.216 36.7295 191.836 36.4961C191.457 36.2627 191.128 35.9563 190.867 35.5948C190.607 35.2333 190.421 34.8238 190.32 34.3899C190.104 33.6087 190.18 32.7756 190.533 32.046C190.885 31.3163 191.492 30.7399 192.238 30.4242C192.985 30.1084 193.821 30.0749 194.59 30.3299C195.359 30.5849 196.01 31.1109 196.42 31.8099L195.22 32.11C194.892 31.739 194.449 31.4888 193.962 31.3995C193.475 31.3102 192.973 31.387 192.534 31.6176C192.096 31.8481 191.748 32.2191 191.546 32.6711C191.344 33.123 191.3 33.6297 191.42 34.11C191.483 34.3997 191.604 34.6738 191.775 34.9163C191.946 35.1588 192.163 35.3647 192.415 35.5221C192.666 35.6795 192.947 35.7851 193.239 35.8328C193.532 35.8805 193.831 35.8694 194.12 35.7999C194.508 35.7024 194.862 35.5009 195.144 35.2172C195.425 34.9336 195.625 34.5784 195.72 34.1899ZM202.3 34.0199L202.5 35.0999L198.93 35.7599L197.73 29.3799L201.31 28.7099L201.51 29.79L199.01 30.2499L199.31 31.8299L201.05 31.4999L201.25 32.58L199.51 32.9099L199.81 34.4799L202.31 34.0199H202.3ZM203.67 33.13L203.62 32.7599L204.71 32.6199L204.76 32.9799C204.83 33.5099 205.32 33.78 205.82 33.72C206.28 33.66 206.66 33.29 206.6 32.86C206.52 32.3 206.1 32.1899 205.35 31.9199L204.94 31.78C204.16 31.51 203.37 31.03 203.24 30.1C203.11 29.05 203.89 28.2299 204.95 28.0799C205.207 28.0331 205.471 28.0398 205.726 28.0998C205.98 28.1597 206.22 28.2716 206.429 28.4284C206.639 28.5851 206.813 28.7834 206.942 29.0108C207.072 29.2382 207.152 29.4899 207.18 29.7499L207.23 30.1499L206.14 30.29L206.09 29.9199C206.02 29.3799 205.56 29.0999 205.07 29.1699C204.6 29.2299 204.3 29.5799 204.35 29.9999C204.41 30.4299 204.83 30.6 205.41 30.78L205.87 30.94C206.93 31.27 207.6 31.91 207.71 32.74C207.86 33.86 207.01 34.6599 205.96 34.7999C204.94 34.9399 203.84 34.38 203.66 33.13H203.67ZM81.3399 108.18L80.6799 109.11L79.4399 108.69L78.1199 110.55L78.9199 111.59L78.2599 112.51L74.0999 107.15L74.9099 106.01L81.3399 108.18ZM75.6999 107.43L77.4299 109.66L78.3799 108.33L75.6999 107.43ZM86.6699 101.6L86.0699 102.35C85.8099 102.15 85.4999 102.03 85.1799 101.98C85.2673 102.646 85.1517 103.323 84.8482 103.923C84.5447 104.522 84.0675 105.016 83.4789 105.34C82.8903 105.664 82.2176 105.803 81.5488 105.739C80.8799 105.675 80.2461 105.41 79.7299 104.98C79.3809 104.708 79.0892 104.369 78.8716 103.983C78.6539 103.598 78.5146 103.173 78.4616 102.733C78.4087 102.294 78.4431 101.848 78.5629 101.422C78.6828 100.996 78.8856 100.597 79.1599 100.25C79.4369 99.9029 79.7798 99.6141 80.1689 99.4C80.5579 99.1859 80.9854 99.0509 81.4268 99.0025C81.8682 98.9542 82.3148 98.9936 82.7409 99.1184C83.1671 99.2433 83.5643 99.4511 83.9099 99.7299C84.3399 100.07 84.6599 100.5 84.8899 100.96C85.4899 100.96 86.1299 101.16 86.6699 101.59V101.6ZM80.4399 104.08C80.7448 104.324 81.1045 104.489 81.4879 104.562C81.8713 104.636 82.2667 104.614 82.6399 104.5C82.3756 103.918 82.3444 103.256 82.5527 102.652C82.761 102.047 83.193 101.546 83.7599 101.25C83.6146 101.004 83.4247 100.787 83.1999 100.61C82.9721 100.429 82.7107 100.294 82.4309 100.214C82.151 100.134 81.8581 100.109 81.5689 100.142C81.2796 100.175 80.9997 100.265 80.7451 100.406C80.4904 100.547 80.2661 100.737 80.0849 100.965C79.9037 101.193 79.7691 101.454 79.6889 101.734C79.6086 102.014 79.5843 102.307 79.6173 102.596C79.6502 102.885 79.7398 103.165 79.881 103.42C80.0221 103.674 80.2121 103.899 80.4399 104.08ZM83.6399 103.81C84.0199 103.33 84.1599 102.74 84.0799 102.17C83.9399 102.25 83.8099 102.35 83.7099 102.48C83.3799 102.89 83.2899 103.48 83.4699 103.99L83.6399 103.81ZM85.9899 99.0499L82.7899 96.2099L83.5099 95.3899L86.6899 98.2099C87.2199 98.6699 88.0199 98.6299 88.4799 98.1099C88.9399 97.5899 88.8799 96.8099 88.3499 96.3399L85.1699 93.5199L85.8999 92.6899L89.0999 95.5299C89.3365 95.7319 89.5302 95.9791 89.6697 96.2571C89.8092 96.5351 89.8916 96.8382 89.9122 97.1486C89.9327 97.4589 89.8908 97.7702 89.7891 98.0641C89.6874 98.3581 89.5278 98.6287 89.3199 98.8599C89.1158 99.0939 88.8672 99.2849 88.5885 99.4219C88.3099 99.5588 88.0067 99.6389 87.6968 99.6575C87.3869 99.6762 87.0763 99.6329 86.7833 99.5303C86.4902 99.4277 86.2205 99.2678 85.9899 99.0599V99.0499ZM95.4399 92.2299L94.6399 93.0499L93.4799 92.4499L91.8799 94.0699L92.5099 95.2199L91.7099 96.0399L88.4399 90.0899L89.4199 89.0899L95.4399 92.2299ZM89.9799 90.62L91.3399 93.0899L92.4799 91.9199L89.9799 90.62ZM96.5399 89.1299L97.5899 90.26L96.7899 91.01L92.3599 86.2399L93.8999 84.8099C94.6699 84.1099 95.5699 84.2299 96.1399 84.8499C96.4399 85.1699 96.5399 85.51 96.5299 85.97C97.3799 85.47 98.4799 85.72 99.2799 86.58L100.33 87.72L99.5299 88.47L98.5299 87.4C97.8699 86.68 97.0999 86.64 96.5199 87.18C95.9899 87.67 95.9199 88.4599 96.5399 89.1299ZM94.4899 85.73L93.8899 86.2799L95.1699 87.66C95.1899 87.29 95.3399 86.9399 95.4699 86.5999C95.5599 86.3199 95.6599 85.93 95.4099 85.66C95.1699 85.4 94.8199 85.42 94.4899 85.73ZM98.7399 80.5299L102.95 85.48L102.11 86.1999L97.8999 81.25L98.7399 80.5299ZM103.71 82.11L101.08 78.7399L101.94 78.0599L104.56 81.41C104.661 81.5393 104.787 81.6475 104.93 81.7283C105.072 81.8091 105.23 81.861 105.393 81.8809C105.556 81.9009 105.721 81.8886 105.879 81.8446C106.038 81.8007 106.186 81.7261 106.315 81.625C106.444 81.5238 106.552 81.3982 106.633 81.2553C106.714 81.1124 106.766 80.9549 106.786 80.792C106.806 80.629 106.794 80.4637 106.75 80.3055C106.706 80.1473 106.631 79.9993 106.53 79.87L103.92 76.5199L104.78 75.8399L107.42 79.22C108.27 80.32 108.02 81.7499 107.02 82.5299C106.02 83.3099 104.57 83.21 103.72 82.11H103.71ZM109.34 78.33L109.13 78.0299L110.03 77.3899L110.24 77.69C110.54 78.12 111.11 78.1399 111.52 77.8499C111.9 77.5799 112.07 77.08 111.82 76.72C111.49 76.27 111.06 76.36 110.28 76.48L109.84 76.54C109.04 76.66 108.11 76.5999 107.57 75.8399C106.95 74.9699 107.27 73.88 108.14 73.26C108.346 73.0989 108.583 72.982 108.836 72.9167C109.089 72.8513 109.353 72.8389 109.611 72.8802C109.869 72.9215 110.116 73.0157 110.336 73.1567C110.556 73.2977 110.745 73.4827 110.89 73.6999L111.12 74.0299L110.22 74.6699L110 74.36C109.69 73.92 109.16 73.87 108.75 74.16C108.36 74.44 108.25 74.89 108.5 75.23C108.75 75.58 109.2 75.55 109.8 75.43L110.28 75.36C111.37 75.16 112.26 75.42 112.75 76.11C113.4 77.02 113.01 78.1299 112.15 78.7399C111.31 79.3399 110.07 79.35 109.35 78.33H109.34ZM30.8999 213.88L31.0299 212.64C32.3299 213.19 33.1699 214.54 33.0299 216.02C32.9851 216.463 32.8527 216.894 32.6404 217.286C32.4282 217.678 32.1402 218.024 31.7933 218.304C31.4464 218.584 31.0474 218.792 30.6194 218.917C30.1914 219.041 29.7429 219.08 29.2999 219.03C28.4921 218.972 27.7329 218.623 27.1634 218.047C26.5939 217.472 26.2529 216.709 26.204 215.9C26.1551 215.092 26.4015 214.293 26.8975 213.653C27.3934 213.013 28.105 212.575 28.8999 212.42L28.7799 213.65C28.0299 213.95 27.4799 214.63 27.3999 215.47C27.3696 215.762 27.3978 216.057 27.4828 216.338C27.5679 216.619 27.708 216.88 27.8952 217.107C28.0823 217.333 28.3126 217.519 28.5727 217.656C28.8328 217.792 29.1174 217.875 29.4099 217.9C29.7044 217.935 30.0028 217.911 30.2879 217.829C30.573 217.748 30.839 217.61 31.0707 217.425C31.3023 217.24 31.4949 217.011 31.6372 216.751C31.7796 216.491 31.8688 216.205 31.8999 215.91C31.9799 215.08 31.5699 214.31 30.8999 213.88ZM34.1199 206.6L33.9599 207.72L32.6699 207.92L32.3499 210.18L33.5299 210.73L33.3699 211.86L27.2099 209L27.4099 207.62L34.1199 206.59V206.6ZM28.7699 208.52L31.3299 209.72L31.5599 208.09L28.7599 208.52H28.7699ZM28.0499 203.83L28.4099 201.83C28.4544 201.581 28.5478 201.343 28.6848 201.131C28.8218 200.918 28.9997 200.735 29.2081 200.592C29.4165 200.449 29.6512 200.348 29.8987 200.296C30.1462 200.244 30.4015 200.242 30.6499 200.29C30.9032 200.326 31.1466 200.413 31.365 200.546C31.5835 200.679 31.7725 200.856 31.9204 201.065C32.0683 201.273 32.172 201.51 32.2253 201.76C32.2785 202.011 32.2801 202.269 32.2299 202.52L32.0599 203.45L34.6399 203.92L34.4399 205L28.0399 203.83H28.0499ZM29.4799 202.1L29.3299 202.95L30.9799 203.25L31.1299 202.41C31.1516 202.3 31.1512 202.186 31.1287 202.076C31.1062 201.966 31.062 201.861 30.9988 201.768C30.9355 201.675 30.8544 201.595 30.7602 201.534C30.666 201.472 30.5605 201.43 30.4499 201.41C30.3402 201.391 30.2278 201.395 30.1194 201.42C30.011 201.445 29.9087 201.492 29.8185 201.557C29.7282 201.622 29.6518 201.705 29.5937 201.8C29.5356 201.894 29.4969 202 29.4799 202.11V202.1ZM34.3099 197.81L35.8099 198.15L35.5699 199.22L29.2299 197.81L29.6899 195.76C29.9099 194.74 30.7199 194.33 31.5499 194.51C31.9699 194.61 32.2499 194.83 32.4999 195.21C32.9199 194.31 33.9699 193.91 35.1099 194.16L36.6299 194.5L36.3899 195.57L34.9699 195.25C34.0199 195.04 33.3499 195.45 33.1799 196.22C33.0199 196.92 33.4099 197.61 34.3099 197.81ZM30.6899 196.17L30.5099 196.97L32.3499 197.37C32.1499 197.07 32.0799 196.69 31.9799 196.34C31.8999 196.06 31.7599 195.68 31.4099 195.6C31.0599 195.52 30.7899 195.74 30.6899 196.17ZM31.1699 189.8L37.4599 191.43L37.1799 192.5L30.8899 190.86L31.1699 189.8ZM37.4499 183.8L37.8099 182.62C38.3902 183.02 38.8287 183.593 39.0623 184.258C39.2959 184.923 39.3126 185.645 39.1099 186.32C38.9799 186.746 38.7668 187.142 38.4828 187.485C38.1987 187.829 37.8495 188.112 37.4552 188.32C37.0609 188.527 36.6293 188.654 36.1856 188.694C35.7418 188.733 35.2947 188.684 34.8699 188.55C34.0896 188.335 33.4139 187.844 32.9684 187.168C32.5229 186.492 32.338 185.678 32.448 184.876C32.5581 184.074 32.9555 183.339 33.5665 182.809C34.1775 182.278 34.9605 181.987 35.7699 181.99L35.4099 183.17C34.9188 183.259 34.4724 183.512 34.1433 183.887C33.8142 184.262 33.6219 184.738 33.5975 185.237C33.5732 185.735 33.7183 186.227 34.0092 186.633C34.3002 187.038 34.7199 187.333 35.1999 187.47C35.4815 187.56 35.7782 187.593 36.0727 187.568C36.3673 187.542 36.6539 187.459 36.916 187.322C37.1782 187.186 37.4107 186.998 37.6001 186.771C37.7896 186.544 37.9323 186.282 38.0199 186C38.2699 185.2 38.0199 184.36 37.4499 183.8ZM41.6599 178.7C41.5094 179.117 41.2775 179.501 40.9777 179.828C40.6778 180.155 40.3159 180.419 39.9131 180.605C39.5102 180.791 39.0744 180.896 38.631 180.912C38.1875 180.928 37.7453 180.856 37.3299 180.7C36.9128 180.555 36.5284 180.329 36.1986 180.036C35.8688 179.742 35.6001 179.386 35.4078 178.989C35.2156 178.591 35.1036 178.16 35.0782 177.719C35.0528 177.278 35.1145 176.837 35.2599 176.42C35.4097 176.003 35.6404 175.619 35.9387 175.291C36.2371 174.963 36.5972 174.697 36.9986 174.508C37.3999 174.32 37.8345 174.212 38.2774 174.192C38.7204 174.172 39.163 174.239 39.5799 174.39C40.0002 174.534 40.3878 174.759 40.7203 175.054C41.0528 175.349 41.3236 175.706 41.5171 176.106C41.7105 176.506 41.8227 176.94 41.8472 177.384C41.8718 177.827 41.8081 178.271 41.6599 178.69V178.7ZM40.5899 178.31C40.6872 178.031 40.7281 177.736 40.7103 177.441C40.6924 177.146 40.6162 176.857 40.4859 176.592C40.3556 176.327 40.174 176.09 39.9515 175.896C39.729 175.702 39.4701 175.553 39.1899 175.46C38.9133 175.347 38.6168 175.292 38.3181 175.297C38.0195 175.302 37.725 175.367 37.4524 175.489C37.1797 175.611 36.9347 175.787 36.732 176.007C36.5293 176.226 36.3732 176.484 36.2731 176.766C36.1729 177.047 36.1309 177.346 36.1495 177.644C36.1681 177.942 36.2469 178.233 36.3812 178.5C36.5155 178.767 36.7025 179.004 36.9308 179.196C37.1592 179.389 37.4242 179.533 37.7099 179.62C38.9099 180.05 40.1799 179.46 40.5899 178.32V178.31ZM42.2199 172.53L43.6399 173.1L43.2299 174.12L37.2099 171.68L37.9999 169.73C38.3899 168.77 39.2599 168.49 40.0399 168.81C40.4399 168.98 40.6799 169.25 40.8599 169.67C41.4199 168.85 42.5299 168.62 43.6199 169.06L45.0499 169.64L44.6399 170.66L43.2899 170.11C42.3899 169.74 41.6599 170.03 41.3699 170.77C41.0999 171.43 41.3699 172.17 42.2199 172.52V172.53ZM38.9199 170.31L38.6199 171.06L40.3499 171.76C40.2099 171.43 40.1999 171.05 40.1699 170.69C40.1399 170.39 40.0599 169.99 39.7299 169.86C39.3899 169.73 39.0899 169.89 38.9199 170.31ZM46.2499 166.93L45.7899 167.93L42.0699 166.23C41.763 166.106 41.4846 165.921 41.2515 165.686C41.0183 165.451 40.8354 165.172 40.7138 164.864C40.5922 164.556 40.5345 164.227 40.5441 163.896C40.5538 163.565 40.6306 163.24 40.7699 162.94C40.9057 162.639 41.1012 162.369 41.3443 162.146C41.5875 161.923 41.8733 161.752 42.1846 161.643C42.4959 161.533 42.8261 161.488 43.1553 161.51C43.4845 161.532 43.8058 161.62 44.0999 161.77L47.8299 163.47L47.3699 164.47L43.6699 162.78C42.8699 162.42 42.0999 162.74 41.7999 163.4C41.4899 164.08 41.7499 164.88 42.5399 165.24L46.2499 166.94V166.93ZM46.7299 334.21L46.3899 334.38L45.9099 333.38L46.2499 333.23C46.7199 332.99 46.8299 332.44 46.6099 331.99C46.4099 331.57 45.9399 331.32 45.5499 331.52C45.0499 331.76 45.0699 332.21 45.0499 332.99V333.43C45.0299 334.25 44.8199 335.15 43.9799 335.56C43.0299 336.02 41.9999 335.54 41.5299 334.57C41.0399 333.57 41.3599 332.45 42.4199 331.94L42.7799 331.76L43.2599 332.76L42.9199 332.92C42.4299 333.16 42.2999 333.67 42.5199 334.12C42.7199 334.55 43.1599 334.72 43.5399 334.54C43.9199 334.35 43.9599 333.9 43.9399 333.3L43.9499 332.8C43.9399 331.7 44.3399 330.86 45.0899 330.5C46.0999 330 47.1299 330.57 47.5899 331.51C48.0399 332.44 47.8599 333.66 46.7299 334.21ZM43.7999 323.42L44.2599 324.47L43.2599 325.32L44.1799 327.4L45.4799 327.25L45.9399 328.29L39.1999 329.11L38.6399 327.83L43.7999 323.43V323.42ZM40.2599 327.88L43.0599 327.55L42.4099 326.05L40.2599 327.88ZM39.5699 319.12L38.6399 319.48L37.8099 317.32L40.9799 316.1L41.3499 317.06L40.5099 317.38C40.9118 317.52 41.2792 317.744 41.5879 318.037C41.8965 318.33 42.1392 318.686 42.2999 319.08C42.4571 319.495 42.5308 319.937 42.5168 320.38C42.5028 320.824 42.4014 321.26 42.2183 321.664C42.0353 322.068 41.7743 322.432 41.4502 322.735C41.1261 323.038 40.7454 323.274 40.3299 323.43C39.4982 323.755 38.5719 323.737 37.7531 323.381C36.9344 323.025 36.2897 322.36 35.9599 321.53C35.4199 320.13 35.8899 318.53 36.9999 317.71L37.4399 318.83C37.1608 319.135 36.9734 319.513 36.8991 319.92C36.8248 320.326 36.8667 320.746 37.0199 321.13C37.1289 321.402 37.2903 321.65 37.4951 321.859C37.6998 322.068 37.9438 322.235 38.2131 322.351C38.4823 322.466 38.7717 322.527 39.0646 322.53C39.3574 322.533 39.6481 322.479 39.9199 322.37C40.4751 322.161 40.9247 321.741 41.1703 321.201C41.4159 320.661 41.4373 320.046 41.2299 319.49C41.0595 319.079 40.7805 318.723 40.4229 318.458C40.0653 318.194 39.6425 318.032 39.1999 317.99L39.1499 318.02L39.5699 319.12ZM33.9199 315.2L40.0699 313.09L40.4199 314.13L34.2699 316.23L33.9199 315.2ZM33.4699 310.29L38.6299 308.71L38.9499 309.76L33.7899 311.34L34.1899 312.65L33.1399 312.97L31.9999 309.3L33.0499 308.98L33.4499 310.3L33.4699 310.29ZM31.9599 304.88L37.1799 303.48L37.4599 304.55L32.2399 305.94L32.5899 307.26L31.5299 307.55L30.5399 303.82L31.5999 303.54L31.9599 304.88ZM35.3699 295.66L35.6199 296.77L34.4899 297.42L34.9899 299.64L36.2899 299.74L36.5399 300.85L29.7699 300.37L29.4699 299L35.3699 295.66ZM31.0499 299.36L33.8599 299.56L33.4999 297.96L31.0499 299.36ZM33.2899 292.88L34.7999 292.6L34.9999 293.69L28.5999 294.85L28.2299 292.79C28.0399 291.76 28.6299 291.07 29.4599 290.91C29.8899 290.84 30.2299 290.94 30.6099 291.19C30.6399 290.2 31.4599 289.41 32.6099 289.2L34.1299 288.92L34.3299 290.01L32.8999 290.27C31.9399 290.44 31.4799 291.07 31.6299 291.85C31.7599 292.55 32.3799 293.05 33.2899 292.88ZM29.3199 292.78L29.4599 293.58L31.3099 293.24C31.0099 293.04 30.7999 292.71 30.5699 292.43C30.3899 292.2 30.1099 291.9 29.7599 291.97C29.3999 292.03 29.2299 292.34 29.3199 292.78ZM27.2099 286.68L33.6399 285.74L33.7999 286.83L27.3699 287.77L27.2099 286.68ZM31.2999 283.72L27.0499 284.19L26.9299 283.09L31.1499 282.63C31.3208 282.623 31.4883 282.58 31.6422 282.506C31.796 282.431 31.9329 282.325 32.0443 282.196C32.1558 282.066 32.2394 281.915 32.2901 281.751C32.3407 281.588 32.3573 281.416 32.3388 281.246C32.3203 281.076 32.2671 280.911 32.1824 280.763C32.0978 280.614 31.9836 280.484 31.8469 280.382C31.7101 280.279 31.5537 280.205 31.3874 280.166C31.2211 280.126 31.0484 280.12 30.8799 280.15L26.6499 280.61L26.5299 279.52L30.7799 279.05C31.0893 279.01 31.4036 279.032 31.7042 279.115C32.0049 279.199 32.2857 279.342 32.5301 279.536C32.7744 279.73 32.9773 279.971 33.1267 280.244C33.2762 280.518 33.369 280.819 33.3999 281.13C33.4373 281.439 33.4123 281.753 33.3263 282.053C33.2403 282.352 33.0952 282.631 32.8994 282.874C32.7036 283.116 32.4611 283.317 32.1864 283.464C31.9117 283.611 31.6102 283.701 31.2999 283.73V283.72ZM30.9999 277.06L30.6299 277.08L30.5499 275.98L30.9199 275.96C31.4499 275.92 31.7599 275.46 31.7199 274.96C31.6899 274.48 31.3499 274.09 30.9199 274.12C30.3499 274.16 30.2199 274.58 29.8999 275.3L29.7299 275.7C29.4199 276.46 28.8899 277.22 27.9499 277.29C26.8899 277.36 26.1199 276.52 26.0499 275.46C25.9699 274.35 26.6699 273.43 27.8499 273.34L28.2499 273.32L28.3299 274.42L27.9499 274.44C27.4099 274.48 27.0999 274.91 27.1399 275.41C27.1699 275.88 27.4999 276.21 27.9199 276.17C28.3499 276.14 28.5499 275.74 28.7599 275.17L28.9599 274.72C29.3499 273.69 30.0399 273.06 30.8699 273C31.9899 272.92 32.7399 273.83 32.8099 274.88C32.8799 275.9 32.2599 276.97 31.0099 277.06H30.9999ZM108.14 417.06L107.91 417.36L107.04 416.68L107.27 416.38C107.59 415.97 107.45 415.42 107.05 415.12C106.68 414.82 106.15 414.82 105.89 415.16C105.55 415.6 105.76 415.99 106.09 416.7L106.29 417.1C106.63 417.84 106.84 418.74 106.26 419.48C105.61 420.32 104.48 420.33 103.63 419.68C102.75 418.99 102.54 417.85 103.27 416.92L103.51 416.61L104.38 417.28L104.15 417.58C103.81 418.01 103.93 418.53 104.32 418.83C104.7 419.13 105.16 419.09 105.42 418.76C105.68 418.42 105.52 418 105.24 417.46L105.02 417.02C104.52 416.04 104.52 415.11 105.02 414.44C105.72 413.56 106.89 413.61 107.72 414.25C108.53 414.89 108.91 416.07 108.14 417.06ZM99.2999 410.27L98.3499 409.47C98.9485 409.095 99.6509 408.92 100.356 408.97C101.06 409.02 101.731 409.293 102.27 409.75C102.609 410.039 102.887 410.393 103.088 410.791C103.29 411.189 103.41 411.622 103.443 412.067C103.475 412.511 103.419 412.958 103.278 413.381C103.137 413.804 102.913 414.194 102.62 414.53C102.112 415.162 101.392 415.588 100.594 415.729C99.7955 415.869 98.9733 415.714 98.2806 415.293C97.5878 414.872 97.0718 414.214 96.8288 413.44C96.5858 412.667 96.6324 411.832 96.9599 411.09L97.8899 411.89C97.7827 412.373 97.8406 412.878 98.0545 413.324C98.2683 413.77 98.6257 414.132 99.0693 414.351C99.513 414.57 100.017 414.633 100.501 414.532C100.986 414.43 101.422 414.169 101.74 413.79C102.57 412.82 102.47 411.42 101.53 410.62C101.225 410.362 100.854 410.193 100.459 410.131C100.064 410.069 99.6595 410.117 99.2899 410.27H99.2999ZM96.6699 404.7C96.9923 405.003 97.2514 405.368 97.4321 405.772C97.6128 406.176 97.7116 406.612 97.7228 407.055C97.7339 407.498 97.6572 407.938 97.4971 408.351C97.337 408.764 97.0966 409.141 96.7899 409.46C96.4913 409.785 96.1315 410.048 95.731 410.234C95.3306 410.42 94.8975 410.526 94.4563 410.544C94.0152 410.563 93.5747 410.494 93.1601 410.343C92.7455 410.191 92.3648 409.959 92.0399 409.66C91.7163 409.357 91.4557 408.993 91.273 408.589C91.0903 408.185 90.989 407.749 90.9751 407.306C90.9612 406.863 91.0348 406.421 91.1918 406.007C91.3487 405.592 91.586 405.213 91.8899 404.89C92.189 404.56 92.5505 404.293 92.9536 404.105C93.3568 403.916 93.7933 403.809 94.2381 403.79C94.6828 403.772 95.1268 403.842 95.5443 403.996C95.9617 404.151 96.3443 404.386 96.6699 404.69V404.7ZM95.8999 405.52C95.6834 405.319 95.4289 405.163 95.1513 405.061C94.8737 404.959 94.5786 404.914 94.2833 404.928C93.9881 404.942 93.6986 405.015 93.4318 405.142C93.165 405.27 92.9264 405.449 92.7299 405.67C92.5323 405.882 92.3783 406.131 92.2769 406.403C92.1755 406.674 92.1285 406.963 92.1387 407.253C92.1489 407.542 92.2161 407.827 92.3364 408.091C92.4567 408.355 92.6278 408.592 92.8399 408.79C93.052 408.988 93.3009 409.142 93.5725 409.243C93.8441 409.344 94.133 409.391 94.4227 409.381C94.7124 409.371 94.9973 409.304 95.261 409.183C95.5248 409.063 95.7623 408.892 95.9599 408.68C96.8199 407.75 96.7899 406.35 95.8999 405.52ZM91.4599 401.92L92.5599 400.84L93.3299 401.63L88.6999 406.18L87.2199 404.68C86.4999 403.94 86.5899 403.04 87.1899 402.44C87.4999 402.14 87.8399 402.04 88.2999 402.03C87.7699 401.19 87.9999 400.08 88.8399 399.26L89.9399 398.18L90.7099 398.96L89.6799 399.98C88.9799 400.66 88.9599 401.44 89.5099 402C90.0099 402.52 90.8099 402.57 91.4599 401.92ZM88.1199 404.07L88.6899 404.65L90.0299 403.33C89.6599 403.33 89.3099 403.18 88.9599 403.07C88.6799 402.99 88.2899 402.9 88.0299 403.15C87.7699 403.4 87.8099 403.75 88.1299 404.07H88.1199ZM83.7999 401.07L82.4299 399.57C81.6799 398.73 81.8299 397.53 82.5699 396.85C83.4699 396.05 84.6199 396.2 85.2999 396.95L85.9299 397.65L87.8699 395.89L88.6099 396.69L83.8099 401.07H83.7999ZM83.2999 398.88L83.8799 399.52L85.1199 398.39L84.5399 397.75C84.3887 397.583 84.1773 397.483 83.9523 397.472C83.7273 397.46 83.507 397.539 83.3399 397.69C83.2574 397.765 83.1908 397.857 83.1441 397.958C83.0973 398.06 83.0713 398.17 83.0676 398.282C83.0639 398.393 83.0825 398.505 83.1224 398.609C83.1623 398.714 83.2226 398.809 83.2999 398.89V398.88ZM79.1699 395.79L84.1199 391.58L84.8299 392.41L79.8799 396.63L79.1699 395.79ZM80.9499 387.22C81.2238 387.569 81.4257 387.969 81.5439 388.396C81.6621 388.824 81.6942 389.27 81.6384 389.71C81.5826 390.15 81.44 390.575 81.2188 390.959C80.9976 391.344 80.7022 391.681 80.3499 391.95C80.0045 392.228 79.6076 392.435 79.1819 392.559C78.7562 392.683 78.3102 392.721 77.8695 392.672C77.4289 392.623 77.0024 392.487 76.6146 392.272C76.2268 392.057 75.8853 391.767 75.6099 391.42C75.337 391.07 75.136 390.669 75.0184 390.241C74.9008 389.813 74.869 389.366 74.9247 388.925C74.9805 388.485 75.1227 388.06 75.3433 387.674C75.5638 387.289 75.8583 386.951 76.2099 386.68C76.5559 386.402 76.9534 386.196 77.3794 386.073C77.8055 385.95 78.2517 385.913 78.6924 385.963C79.133 386.013 79.5594 386.15 79.9468 386.366C80.3343 386.581 80.6752 386.872 80.9499 387.22ZM80.0599 387.92C79.8762 387.69 79.6487 387.498 79.3906 387.356C79.1324 387.214 78.8487 387.125 78.5558 387.093C78.2629 387.062 77.9666 387.088 77.6841 387.172C77.4016 387.255 77.1385 387.394 76.9099 387.58C76.6814 387.759 76.4904 387.982 76.3479 388.235C76.2054 388.488 76.1142 388.766 76.0793 389.055C76.0445 389.343 76.0668 389.635 76.145 389.915C76.2232 390.195 76.3556 390.456 76.5349 390.685C76.7142 390.913 76.9367 391.104 77.1897 391.247C77.4428 391.389 77.7214 391.481 78.0097 391.516C78.2981 391.55 78.5904 391.528 78.8701 391.45C79.1498 391.372 79.4114 391.239 79.6399 391.06C80.6399 390.26 80.8199 388.88 80.0599 387.92ZM200.18 461.75L200.38 460.67L203.82 461.3L202.66 467.7L201.57 467.5L202.54 462.18L200.18 461.75ZM195.86 466.33L197.26 459.98L198.33 460.21L196.93 466.56L195.86 466.33ZM192.2 458.74L194.43 459.31L192.79 465.61L190.93 465.12C190.13 464.92 189.49 464.2 189.71 463.34C189.81 462.95 190.02 462.64 190.39 462.44C189.61 461.98 189.31 461.07 189.55 460.17C189.82 459.09 191.02 458.43 192.21 458.74H192.2ZM191.28 464.11L192.03 464.31L192.46 462.64C192.16 462.81 191.76 462.87 191.46 462.94C191.1 463.02 190.84 463.16 190.77 463.43C190.69 463.73 190.87 464 191.28 464.11ZM192.9 460.93L193.11 460.11L192 459.82C191.24 459.62 190.74 459.99 190.59 460.57C190.44 461.12 190.73 461.7 191.36 461.87C192.08 462.05 192.72 461.61 192.9 460.93ZM186.6 458.72L187.05 457.25L188.1 457.57L186.2 463.79L184.18 463.17C183.18 462.87 182.84 462.03 183.08 461.21C183.22 460.81 183.46 460.55 183.86 460.32C183 459.84 182.67 458.76 183.02 457.64L183.47 456.15L184.52 456.48L184.1 457.86C183.81 458.8 184.16 459.49 184.92 459.73C185.61 459.93 186.32 459.6 186.6 458.73V458.72ZM184.68 462.2L185.45 462.44L186.01 460.64C185.68 460.82 185.31 460.86 184.95 460.93C184.65 460.99 184.27 461.1 184.16 461.43C184.06 461.78 184.25 462.07 184.68 462.2ZM176.92 453.85L178 454.23L177.93 455.54L180.08 456.3L180.86 455.25L181.93 455.64L177.91 461.1L176.59 460.63L176.92 453.85ZM177.74 459.48L179.42 457.21L177.87 456.67L177.74 459.48ZM317 454.7L321.01 460.17L319.93 460.55L316.83 456.33L317.06 461.56L315.98 461.94L315.68 455.15L316.99 454.69L317 454.7ZM312.4 463.01L310.45 456.81L311.5 456.48L313.45 462.68L312.4 463.01ZM307.07 459.44L306.65 457.95L307.71 457.65L309.46 463.91L307.44 464.48C307.144 464.585 306.823 464.597 306.521 464.512C306.219 464.428 305.95 464.252 305.751 464.009C305.553 463.765 305.435 463.467 305.413 463.154C305.391 462.84 305.467 462.528 305.63 462.26C304.64 462.32 303.78 461.58 303.47 460.46L303.05 458.96L304.11 458.66L304.5 460.06C304.76 461 305.44 461.4 306.2 461.19C306.89 460.99 307.31 460.32 307.07 459.44ZM307.34 463.4L308.12 463.18L307.61 461.38C307.43 461.69 307.13 461.93 306.87 462.18C306.66 462.38 306.39 462.68 306.49 463.04C306.59 463.38 306.9 463.52 307.34 463.4ZM297.76 462.69L297.99 463.66L295.74 464.2L294.95 460.89L295.95 460.65L296.16 461.53C296.32 461.2 296.89 460.27 298.09 459.99C299.89 459.56 301.7 460.69 302.14 462.52C302.351 463.39 302.208 464.308 301.744 465.073C301.279 465.838 300.529 466.387 299.66 466.6C298.966 466.77 298.235 466.711 297.577 466.432C296.919 466.153 296.369 465.668 296.01 465.05L297.18 464.77C297.444 465.088 297.792 465.325 298.185 465.454C298.578 465.583 298.999 465.599 299.4 465.5C299.685 465.43 299.954 465.304 300.191 465.129C300.427 464.955 300.627 464.736 300.778 464.484C300.93 464.232 301.03 463.953 301.073 463.662C301.116 463.371 301.102 463.075 301.03 462.79C300.966 462.502 300.846 462.23 300.677 461.988C300.507 461.747 300.292 461.541 300.043 461.383C299.794 461.225 299.516 461.118 299.226 461.068C298.935 461.018 298.638 461.025 298.35 461.09C297.45 461.31 296.8 462.08 296.6 462.92V462.96L297.76 462.69ZM289.88 461.74C290.315 461.658 290.762 461.662 291.195 461.754C291.628 461.845 292.038 462.022 292.403 462.273C292.767 462.524 293.078 462.845 293.318 463.216C293.558 463.588 293.722 464.004 293.8 464.44C293.889 464.874 293.891 465.321 293.806 465.756C293.721 466.191 293.551 466.605 293.306 466.974C293.061 467.343 292.745 467.66 292.376 467.906C292.008 468.153 291.595 468.324 291.16 468.41C290.724 468.492 290.276 468.488 289.841 468.397C289.407 468.305 288.995 468.129 288.629 467.878C288.263 467.628 287.95 467.307 287.708 466.935C287.466 466.563 287.3 466.146 287.22 465.71C287.131 465.274 287.13 464.826 287.216 464.39C287.302 463.953 287.474 463.539 287.721 463.17C287.968 462.8 288.287 462.484 288.657 462.238C289.028 461.993 289.443 461.824 289.88 461.74ZM290.09 462.84C289.799 462.897 289.522 463.012 289.276 463.177C289.03 463.342 288.819 463.555 288.656 463.803C288.494 464.05 288.382 464.328 288.327 464.619C288.273 464.911 288.277 465.21 288.34 465.5C288.395 465.785 288.506 466.056 288.666 466.298C288.826 466.541 289.032 466.749 289.272 466.911C289.513 467.074 289.783 467.187 290.068 467.245C290.352 467.304 290.645 467.305 290.93 467.25C291.215 467.195 291.486 467.084 291.728 466.924C291.971 466.764 292.179 466.558 292.341 466.317C292.504 466.077 292.617 465.807 292.675 465.522C292.734 465.238 292.735 464.945 292.68 464.66C292.63 464.37 292.524 464.093 292.367 463.845C292.209 463.597 292.004 463.382 291.763 463.214C291.522 463.045 291.25 462.926 290.963 462.864C290.676 462.802 290.379 462.797 290.09 462.85V462.84ZM405.39 400.43L404.59 399.68L406.98 397.13L411.72 401.56L410.97 402.36L407.03 398.68L405.39 400.43ZM401.06 404.8L400.28 404.03L402.84 401.44L407.46 406.02L404.89 408.61L404.11 407.83L405.9 406.03L404.76 404.9L403.52 406.16L402.74 405.38L403.98 404.13L402.85 403L401.05 404.8H401.06ZM396.75 407.17C397.073 406.867 397.453 406.631 397.868 406.476C398.283 406.321 398.725 406.25 399.167 406.266C399.61 406.283 400.045 406.388 400.447 406.574C400.849 406.76 401.211 407.023 401.51 407.35C402.126 407.993 402.462 408.855 402.443 409.746C402.425 410.636 402.053 411.483 401.41 412.1C401.087 412.403 400.706 412.64 400.291 412.796C399.877 412.952 399.435 413.025 398.992 413.01C398.549 412.995 398.113 412.893 397.709 412.709C397.306 412.526 396.942 412.264 396.64 411.94C396.332 411.621 396.09 411.244 395.928 410.831C395.766 410.418 395.687 409.978 395.696 409.534C395.706 409.091 395.803 408.653 395.982 408.248C396.161 407.842 396.419 407.476 396.74 407.17H396.75ZM397.52 407.99C396.62 408.84 396.6 410.24 397.47 411.16C397.872 411.586 398.426 411.834 399.011 411.851C399.596 411.868 400.164 411.652 400.59 411.25C401.016 410.848 401.264 410.294 401.281 409.709C401.298 409.123 401.082 408.556 400.68 408.13C400.483 407.911 400.244 407.734 399.978 407.608C399.712 407.483 399.423 407.412 399.129 407.398C398.835 407.385 398.541 407.431 398.265 407.533C397.989 407.634 397.736 407.79 397.52 407.99ZM463.58 291.75L463.4 292.98C462.767 292.668 462.249 292.162 461.922 291.537C461.595 290.911 461.475 290.198 461.58 289.5C461.85 287.66 463.58 286.4 465.46 286.68C466.262 286.781 467.001 287.169 467.539 287.773C468.076 288.377 468.377 289.155 468.384 289.964C468.391 290.772 468.105 291.556 467.578 292.17C467.052 292.783 466.32 293.185 465.52 293.3L465.7 292.09C466.17 291.93 466.573 291.616 466.843 291.199C467.113 290.782 467.234 290.287 467.188 289.792C467.142 289.298 466.931 288.833 466.588 288.473C466.245 288.114 465.792 287.88 465.3 287.81C465.007 287.757 464.706 287.764 464.415 287.829C464.124 287.895 463.85 288.018 463.607 288.191C463.365 288.364 463.16 288.585 463.004 288.839C462.848 289.093 462.745 289.375 462.7 289.67C462.645 290.064 462.698 290.465 462.853 290.831C463.008 291.198 463.259 291.515 463.58 291.75ZM459.97 298.89L460.19 297.77L461.49 297.64L461.93 295.4L460.78 294.79L461.01 293.67L467 296.87L466.72 298.23L459.97 298.89ZM465.42 297.26L462.93 295.93L462.61 297.53L465.41 297.26H465.42ZM459.22 301.81L459.48 300.74L463.46 301.73C463.785 301.793 464.094 301.922 464.368 302.109C464.642 302.296 464.875 302.537 465.053 302.816C465.231 303.096 465.35 303.409 465.402 303.737C465.455 304.064 465.441 304.398 465.36 304.72C465.282 305.042 465.139 305.344 464.94 305.608C464.741 305.873 464.49 306.094 464.203 306.259C463.916 306.424 463.598 306.528 463.269 306.566C462.94 306.604 462.607 306.575 462.29 306.48L458.31 305.5L458.57 304.43L462.53 305.41C463.38 305.62 464.08 305.16 464.25 304.46C464.43 303.74 464.02 303 463.18 302.79L459.22 301.81ZM458.4 312.75L458.05 313.94C457.466 313.543 457.023 312.97 456.786 312.305C456.549 311.64 456.529 310.917 456.73 310.24C456.859 309.812 457.072 309.414 457.356 309.068C457.64 308.723 457.99 308.438 458.386 308.23C458.781 308.021 459.214 307.894 459.66 307.854C460.105 307.815 460.554 307.864 460.98 308C461.759 308.214 462.433 308.704 462.879 309.378C463.324 310.051 463.51 310.864 463.403 311.664C463.296 312.465 462.902 313.199 462.295 313.731C461.687 314.264 460.908 314.558 460.1 314.56L460.45 313.39C460.941 313.299 461.386 313.046 461.714 312.67C462.042 312.294 462.233 311.818 462.256 311.319C462.28 310.821 462.133 310.329 461.842 309.925C461.55 309.52 461.13 309.226 460.65 309.09C460.368 308.999 460.071 308.964 459.776 308.989C459.481 309.014 459.194 309.097 458.932 309.234C458.669 309.371 458.437 309.558 458.248 309.786C458.058 310.014 457.916 310.277 457.83 310.56C457.58 311.36 457.83 312.2 458.4 312.76V312.75ZM455.26 318.5L454.23 318.13L455.43 314.7L461.56 316.85L460.36 320.28L459.32 319.92L460.16 317.52L458.66 316.99L458.06 318.66L457.03 318.3L457.61 316.63L456.11 316.1L455.26 318.5ZM454.42 321.84L452.99 321.28L453.39 320.25L459.44 322.65L458.66 324.61C458.28 325.57 457.41 325.85 456.62 325.54C456.22 325.38 455.98 325.11 455.8 324.69C455.24 325.52 454.13 325.75 453.05 325.32L451.61 324.75L452.01 323.73L453.36 324.26C454.27 324.63 454.99 324.33 455.28 323.6C455.55 322.93 455.28 322.18 454.42 321.84ZM457.74 324.04L458.04 323.28L456.29 322.58C456.43 322.92 456.44 323.3 456.49 323.67C456.52 323.96 456.59 324.36 456.93 324.49C457.26 324.62 457.57 324.45 457.73 324.03L457.74 324.04ZM456.84 177.8L457.78 177.47L458.56 179.65L455.36 180.79L455.01 179.82L455.86 179.52C455.461 179.371 455.098 179.138 454.798 178.836C454.498 178.534 454.266 178.17 454.12 177.77C453.826 176.924 453.88 175.996 454.27 175.19C454.66 174.383 455.354 173.765 456.2 173.47C457.96 172.84 459.9 173.76 460.52 175.49C461.02 176.91 460.52 178.49 459.37 179.29L458.97 178.15C459.54 177.55 459.75 176.7 459.45 175.87C459.35 175.594 459.196 175.34 458.997 175.123C458.798 174.907 458.558 174.732 458.292 174.608C458.025 174.484 457.736 174.415 457.443 174.403C457.149 174.391 456.856 174.438 456.58 174.54C456.02 174.733 455.559 175.141 455.298 175.673C455.038 176.205 454.999 176.819 455.19 177.38C455.35 177.797 455.621 178.163 455.973 178.438C456.326 178.712 456.746 178.886 457.19 178.94L457.24 178.92L456.84 177.81V177.8ZM458.17 186.22L457.12 186.55L456.02 183.08L462.22 181.12L463.32 184.59L462.26 184.92L461.5 182.5L459.97 182.98L460.51 184.67L459.46 185L458.92 183.31L457.4 183.8L458.17 186.22ZM465.52 191.81C465.596 192.098 465.614 192.398 465.572 192.692C465.531 192.987 465.43 193.27 465.278 193.526C465.125 193.781 464.922 194.003 464.682 194.179C464.442 194.355 464.169 194.481 463.88 194.55L459.7 195.7L459.4 194.64L463.63 193.48C464.23 193.31 464.59 192.71 464.43 192.11C464.35 191.835 464.167 191.602 463.919 191.46C463.671 191.319 463.377 191.279 463.1 191.35L458.82 192.53L458.52 191.46L462.8 190.29C463.35 190.14 463.71 189.52 463.55 188.93C463.38 188.33 462.75 187.98 462.15 188.15L457.93 189.31L457.63 188.26L461.83 187.1C462.114 187.013 462.413 186.984 462.709 187.014C463.004 187.044 463.291 187.133 463.552 187.275C463.813 187.418 464.043 187.611 464.228 187.844C464.413 188.076 464.55 188.344 464.63 188.63C464.719 188.933 464.738 189.253 464.686 189.564C464.634 189.876 464.512 190.172 464.33 190.43C464.619 190.556 464.876 190.745 465.082 190.984C465.288 191.223 465.438 191.505 465.52 191.81ZM466.74 197.42L460.42 198.93L460.16 197.86L466.48 196.35L466.74 197.42ZM461.03 202.03L460.81 200.96L464.82 200.12C465.141 200.037 465.476 200.021 465.804 200.073C466.132 200.124 466.446 200.242 466.727 200.419C467.008 200.596 467.249 200.828 467.437 201.102C467.625 201.375 467.756 201.684 467.82 202.01C467.888 202.333 467.889 202.666 467.824 202.99C467.76 203.314 467.63 203.621 467.443 203.893C467.256 204.165 467.016 204.396 466.737 204.573C466.458 204.749 466.146 204.867 465.82 204.92L461.8 205.75L461.58 204.68L465.58 203.85C466.42 203.67 466.86 202.96 466.71 202.25C466.56 201.52 465.88 201.03 465.02 201.21L461.02 202.03H461.03ZM468.72 207.85L462.32 208.98L462.12 207.9L468.53 206.77L468.72 207.85ZM394.85 80.1399L391.53 84.4L390.66 83.72L393.98 79.4599L392.9 78.62L393.58 77.75L396.62 80.12L395.94 80.9899L394.85 80.1399ZM398.2 90.01L397.33 89.2699L397.86 88.07L396.13 86.5899L395.03 87.29L394.16 86.54L399.89 82.8899L400.95 83.8099L398.19 90.01H398.2ZM399.46 84.47L397.08 85.97L398.32 87.05L399.46 84.47ZM400.75 89.4199L403.69 86.32L404.49 87.07L401.56 90.15C401.08 90.66 401.09 91.4499 401.6 91.9499C402.1 92.4199 402.9 92.3799 403.37 91.8799L406.3 88.8L407.1 89.5599L404.15 92.66C403.19 93.66 401.74 93.6299 400.82 92.7599C400.592 92.5475 400.409 92.2916 400.282 92.0073C400.155 91.723 400.086 91.4161 400.079 91.1047C400.073 90.7934 400.129 90.4838 400.244 90.1944C400.359 89.9051 400.531 89.6417 400.75 89.4199ZM405.76 95.3499L404.64 96.41L403.89 95.6099L408.59 91.1399L410.04 92.66C410.76 93.41 410.65 94.3099 410.04 94.8999C409.73 95.1999 409.38 95.2999 408.92 95.2999C409.44 96.1399 409.19 97.2499 408.35 98.0499L407.22 99.1199L406.46 98.3199L407.52 97.3199C408.22 96.6499 408.26 95.8699 407.72 95.2999C407.22 94.7799 406.42 94.7199 405.76 95.3499ZM409.14 93.2499L408.58 92.6699L407.22 93.9699C407.58 93.9699 407.93 94.1299 408.28 94.2399C408.56 94.3399 408.95 94.4299 409.21 94.1799C409.48 93.9299 409.45 93.5799 409.14 93.2599V93.2499ZM409.85 98.7999L413.09 96.0199L413.81 96.8499L410.58 99.6199C410.06 100.08 409.98 100.88 410.44 101.41C410.89 101.93 411.69 101.97 412.22 101.51L415.44 98.7499L416.15 99.5799L412.91 102.38C411.86 103.28 410.41 103.1 409.58 102.14C409.375 101.905 409.219 101.632 409.121 101.336C409.024 101.041 408.986 100.728 409.012 100.418C409.037 100.107 409.124 99.8052 409.268 99.529C409.412 99.2528 409.61 99.0083 409.85 98.8099V98.7999ZM413.63 103.98L413.93 103.75L414.6 104.62L414.31 104.84C413.89 105.17 413.91 105.74 414.21 106.13C414.5 106.5 415.01 106.63 415.35 106.37C415.79 106.02 415.67 105.6 415.52 104.82L415.44 104.39C415.29 103.59 415.3 102.66 416.04 102.09C416.88 101.43 417.98 101.69 418.64 102.54C419.33 103.42 419.25 104.58 418.32 105.3L418.01 105.55L417.33 104.68L417.63 104.45C418.06 104.12 418.07 103.58 417.76 103.19C417.48 102.82 417.01 102.73 416.68 102.99C416.35 103.26 416.4 103.71 416.55 104.29L416.65 104.77C416.89 105.85 416.67 106.76 416.01 107.27C415.12 107.97 414 107.63 413.35 106.8C412.72 105.99 412.65 104.75 413.63 103.98ZM297.9 35.8399L296.78 35.6399L296.63 34.3399L294.39 33.9199L293.79 35.08L292.67 34.88L295.78 28.8399L297.16 29.0999L297.9 35.8399ZM296.2 30.4099L294.9 32.9099L296.51 33.2099L296.21 30.4099H296.2ZM300.92 34.99L300.57 36.49L299.5 36.24L300.97 29.9099L303.01 30.3799C304.02 30.6199 304.43 31.4299 304.24 32.2599C304.14 32.6799 303.91 32.96 303.53 33.2C304.43 33.62 304.83 34.6799 304.56 35.8199L304.21 37.33L303.14 37.08L303.47 35.6799C303.69 34.7199 303.29 34.05 302.52 33.88C301.82 33.71 301.12 34.0899 300.92 34.9799V34.99ZM302.58 31.3899L301.8 31.19L301.37 33.0299C301.68 32.8299 302.06 32.7699 302.41 32.6699C302.69 32.5999 303.07 32.46 303.15 32.11C303.24 31.76 303.02 31.4799 302.59 31.3799L302.58 31.3899ZM308.61 31.8299L306.91 38.0999L305.84 37.81L307.54 31.54L308.61 31.8299ZM313.23 38.9L312.9 39.9399L309.42 38.86L311.36 32.6599L314.83 33.74L314.51 34.79L312.08 34.0299L311.6 35.56L313.3 36.0899L312.97 37.1399L311.27 36.61L310.8 38.1399L313.23 38.8899V38.9ZM314.81 38.74L314.94 38.3899L315.98 38.7599L315.85 39.11C315.67 39.61 315.98 40.0799 316.45 40.2499C316.9 40.4099 317.4 40.2499 317.55 39.8399C317.73 39.3099 317.4 39.0099 316.86 38.4399L316.56 38.1199C316 37.5199 315.51 36.7399 315.83 35.8499C316.19 34.8499 317.26 34.4899 318.27 34.8499C318.52 34.9257 318.751 35.0524 318.949 35.2219C319.147 35.3915 319.308 35.6002 319.422 35.8351C319.536 36.0699 319.6 36.3258 319.61 36.5865C319.619 36.8472 319.575 37.1071 319.48 37.3499L319.35 37.72L318.31 37.3499L318.44 36.99C318.62 36.49 318.34 36.03 317.88 35.86C317.43 35.7 317 35.8799 316.86 36.2699C316.71 36.6699 317.01 37.03 317.44 37.45L317.78 37.7999C318.57 38.5799 318.87 39.4599 318.58 40.2499C318.21 41.3099 317.08 41.6299 316.08 41.2699C315.12 40.9299 314.39 39.93 314.81 38.74Z" fill="#767522"/>
<path fill-rule="evenodd" clip-rule="evenodd" d="M456 248C456 303.165 434.086 356.071 395.078 395.078C356.071 434.086 303.165 456 248 456C192.835 456 139.929 434.086 100.922 395.078C61.9142 356.071 40 303.165 40 248C40 192.835 61.9142 139.929 100.922 100.922C139.929 61.9142 192.835 40 248 40C303.165 40 356.071 61.9142 395.078 100.922C434.086 139.929 456 192.835 456 248ZM454 249C453.737 303.288 432.055 355.278 393.666 393.666C355.278 432.055 303.288 453.737 249 454V436H248C250.6 436 253.1 436 255.7 435.8L256 442.8H257L256.7 435.8C261.9 435.6 267 435.1 272 434.5L273 441.4L274 441.3L273 434.3C278.2 433.7 283.2 432.8 288.2 431.7L289.7 438.5L290.7 438.3L289.2 431.5C294.2 430.4 299.2 429 304.1 427.5L306.1 434.1L307.1 433.8L305.1 427.2C309.9 425.6 314.8 423.9 319.5 421.9L322.2 428.3L323.1 428L320.4 421.5C325.2 419.5 329.8 417.4 334.4 415L337.6 421.2L338.5 420.7L335.3 414.6C337.3 413.6 339.2 412.4 341.1 411.3L350.1 426.9L351.9 425.9L342.9 410.3C344.9 409.3 346.7 408 348.6 406.8L352.3 412.8L353.2 412.2L349.4 406.3C353.8 403.5 358 400.6 362.1 397.5L366.3 403L367.1 402.4L362.8 396.9C366.9 393.7 370.8 390.4 374.6 386.9L379.4 392.1L380.1 391.4L375.4 386.3C379.2 382.8 382.8 379.2 386.3 375.3L391.4 380.1L392.1 379.4L386.9 374.6C390.4 370.9 393.7 366.9 396.9 362.9L402.4 367.1L403 366.3L397.5 362.1C400.5 358 403.5 353.8 406.3 349.5L412.2 353.2L412.7 352.4L406.8 348.6L410.3 342.9L425.9 351.9L426.9 350.1L411.3 341.1L414.6 335.3L420.7 338.5L421.2 337.6L415 334.4C417.4 329.8 419.6 325.2 421.5 320.4L428 323.1L428.3 322.1L421.9 319.5C423.9 314.8 425.6 309.9 427.2 305L433.8 307.1L434.1 306.1L427.5 304.1C429.04 299.158 430.375 294.153 431.5 289.1L438.3 290.7L438.5 289.7L431.7 288.2C432.7 283.2 433.7 278.2 434.3 273L441.3 274V273L434.5 272C435.1 267 435.5 261.9 435.8 256.7L442.8 257V256L435.8 255.7L436 248V249H454ZM248 60C250.6 60 253.1 60 255.7 60.2L256 53.2H257L256.7 60.2C261.9 60.4 267 60.9 272 61.5L273 54.6L274 54.7L273 61.7C278.2 62.3 283.2 63.2 288.2 64.3L289.7 57.5L290.7 57.7L289.2 64.5C294.2 65.7 299.2 67 304.1 68.5L306.1 61.9L307.1 62.2L305.1 68.8C309.9 70.4 314.8 72.1 319.5 74.1L322.2 67.7L323.1 68L320.4 74.5C325.2 76.5 329.8 78.6 334.4 81L337.6 74.8L338.5 75.3L335.3 81.4C337.3 82.4 339.3 83.6 341.1 84.7L350.1 69.1L351.9 70.1L342.9 85.7C344.9 86.7 346.7 88 348.6 89.2L352.3 83.2L353.2 83.8L349.4 89.7C353.8 92.5 358 95.4 362.1 98.5L366.3 93L367.1 93.6L362.8 99.1C366.9 102.3 370.8 105.6 374.6 109.1L379.4 103.9L380.1 104.6L375.4 109.7C379.182 113.216 382.818 116.886 386.3 120.7L391.4 115.9L392.1 116.6L386.9 121.4C390.4 125.1 393.7 129.1 396.9 133.1L402.4 128.9L403 129.7L397.5 133.9C400.5 138 403.5 142.2 406.3 146.6L412.2 142.8L412.7 143.6L406.8 147.4L410.3 153.1L425.9 144.1L426.9 145.9L411.3 154.9L414.6 160.7L420.7 157.5L421.2 158.5L415 161.6C417.4 166.2 419.6 170.8 421.5 175.6L428 172.9L428.3 173.9L421.9 176.5C423.9 181.2 425.6 186.1 427.2 191L433.8 188.9L434.1 189.9L427.5 191.9C429 196.9 430.3 201.8 431.5 206.9L438.3 205.3L438.5 206.3L431.7 207.8C432.7 212.8 433.7 217.8 434.3 223L441.3 222V223L434.5 224C435.1 229 435.5 234.1 435.8 239.3L442.8 239V240L435.8 240.3L436 248V247H454C453.737 192.712 432.055 140.722 393.666 102.334C355.278 63.9455 303.288 42.2629 249 42V60H248ZM240.3 60.2L248 60H247V42C192.712 42.2629 140.722 63.9455 102.334 102.334C63.9455 140.722 42.2629 192.712 42 247H60V249H42C42.2629 303.288 63.9455 355.278 102.334 393.666C140.722 432.055 192.712 453.737 247 454V436H248C245.4 436 242.8 436 240.3 435.8L240 442.8H239L239.3 435.8C234.151 435.577 229.013 435.143 223.9 434.5L223 441.4L222 441.3L223 434.3C217.8 433.7 212.8 432.8 207.8 431.7L206.3 438.5L205.3 438.3L206.8 431.5C201.8 430.3 196.8 429 191.9 427.5L189.9 434.1L188.9 433.8L190.9 427.2C186.1 425.6 181.2 423.9 176.5 421.9L173.8 428.3L172.9 428L175.6 421.5C170.8 419.5 166.2 417.4 161.6 415L158.4 421.2L157.5 420.7L160.7 414.6C158.7 413.6 156.7 412.4 154.9 411.3L145.9 426.9L144.1 425.9L153.1 410.3C151.1 409.2 149.3 408 147.4 406.8L143.6 412.8L142.8 412.2L146.5 406.3C142.2 403.5 138 400.6 133.9 397.5L129.7 403L128.9 402.4L133.1 396.8C129.1 393.8 125.1 390.4 121.4 386.9L116.6 392.1L115.9 391.4L120.6 386.3C116.818 382.784 113.182 379.114 109.7 375.3L104.6 380.1L103.9 379.4L109.1 374.6C105.6 370.8 102.3 366.9 99.1 362.8L93.6 367.1L93 366.3L98.5 362.1C95.5 358 92.5 353.8 89.7 349.4L83.8 353.2L83.3 352.4L89.2 348.6L85.7 342.9L70.1 351.9L69.1 350.1L84.7 341.1C83.5658 339.186 82.4656 337.253 81.4 335.3L75.3 338.5L74.8 337.5L81 334.4C78.6416 329.825 76.4731 325.154 74.5 320.4L68 323.1L67.6 322.1L74.1 319.5C72.1 314.8 70.4 309.9 68.8 305L62.2 307.1L61.9 306.1L68.5 304.1C67 299.1 65.7 294.2 64.5 289.1L57.7 290.7L57.5 289.7L64.3 288.2C63.3 283.2 62.3 278.2 61.7 273L54.7 274L54.6 273L61.6 272C60.9 267 60.4 261.9 60.2 256.7L53.2 257V256L60.2 255.7C59.9933 250.569 59.9933 245.431 60.2 240.3L53.2 240V239L60.2 239.3C60.4 234.1 60.9 229 61.5 224L54.6 223L54.7 222L61.7 223C62.3 217.8 63.2 212.8 64.3 207.8L57.5 206.3L57.7 205.3L64.5 206.8C65.7 201.8 67 196.8 68.5 191.9L61.9 189.9L62.2 188.9L68.8 190.9C70.4 186.1 72.1 181.2 74.1 176.5L67.6 173.8L68 172.9L74.5 175.6C76.5 170.8 78.6 166.2 81 161.6L74.8 158.4L75.3 157.5L81.4 160.7C82.4 158.7 83.6 156.7 84.7 154.9L69.1 145.9L70.1 144.1L85.7 153.1C86.7 151.1 88 149.3 89.2 147.4L83.2 143.6L83.8 142.8L89.7 146.6C92.5 142.2 95.4 138 98.5 133.9L93 129.7L93.6 128.9L99.1 133.2C102.3 129.1 105.6 125.2 109.1 121.4L103.9 116.6L104.6 115.9L109.7 120.6C113.2 116.8 116.8 113.2 120.7 109.7L115.9 104.6L116.6 103.9L121.4 109.1C125.128 105.577 128.998 102.208 133 99L128.8 93.5L129.6 92.9L133.8 98.4C137.9 95.4 142.1 92.4 146.5 89.6L142.7 83.7L143.5 83.2L147.3 89.1L153 85.6L144 70L145.8 69L154.8 84.6L160.6 81.3L157.4 75.2L158.3 74.7L161.5 80.9C166.1 78.5 170.7 76.3 175.5 74.4L172.8 67.9L173.8 67.6L176.4 74C181.1 72 186 70.3 190.9 68.7L188.8 62.1L189.8 61.8L191.8 68.4C196.7 66.9 201.7 65.6 206.8 64.4L205.2 57.6L206.2 57.4L207.7 64.2C212.7 63.2 217.7 62.2 222.9 61.6L221.9 54.6L222.9 54.5L223.9 61.5C228.9 60.8 234 60.3 239.2 60.1L238.9 53.1H239.9L240.2 60.1L240.3 60.2ZM434 248C434 297.33 414.404 344.64 379.522 379.522C344.64 414.404 297.33 434 248 434C198.67 434 151.36 414.404 116.478 379.522C81.5964 344.64 62 297.33 62 248C62 198.67 81.5964 151.36 116.478 116.478C151.36 81.5964 198.67 62 248 62C297.33 62 344.64 81.5964 379.522 116.478C414.404 151.36 434 198.67 434 248Z" fill="#767522"/>
<path fill-rule="evenodd" clip-rule="evenodd" d="M436 248C436 297.861 416.193 345.679 380.936 380.936C345.679 416.193 297.861 436 248 436C198.139 436 150.321 416.193 115.064 380.936C79.8071 345.679 60 297.861 60 248C60 198.139 79.8071 150.321 115.064 115.064C150.321 79.8071 198.139 60 248 60C297.861 60 345.679 79.8071 380.936 115.064C416.193 150.321 436 198.139 436 248ZM434 249C433.737 297.984 414.162 344.887 379.525 379.525C344.887 414.162 297.984 433.737 249 434V424H248C279.7 424 309.5 415.6 335.1 401L340.1 409.6L341.9 408.6L336.9 399.9C362.9 384.7 384.7 362.9 399.9 336.9L408.6 341.9L409.6 340.1L400.9 335.1C416.093 308.59 424.058 278.555 424 248V249H434ZM434 247H424V248C424 216.3 415.6 186.5 401 160.9L409.6 155.9L408.6 154.1L399.9 159.1C384.7 133.1 362.9 111.3 336.9 96.1L341.9 87.4L340.1 86.4L335.1 95.1C308.577 79.9376 278.551 71.9742 248 72H249V62C297.984 62.2627 344.887 81.838 379.525 116.475C414.162 151.113 433.737 198.016 434 247ZM248 72H247V62C198.016 62.2627 151.113 81.838 116.475 116.475C81.838 151.113 62.2627 198.016 62 247H72V249H62C62.2627 297.984 81.838 344.887 116.475 379.525C151.113 414.162 198.016 433.737 247 434V424H248C216.3 424 186.5 415.6 160.9 401L155.9 409.6L154.1 408.6L159.1 399.9C133.1 384.7 111.3 362.9 96.1 336.9L87.4 341.9L86.4 340.1L95.1 335.1C79.9376 308.577 71.9742 278.551 72 248C72 216.3 80.4 186.5 95 160.9L86.4 155.9L87.4 154.1L96.1 159.1C111.3 133.1 133.1 111.3 159.1 96.1L154.1 87.4L155.9 86.4L160.9 95.1C187.41 79.9072 217.445 71.9416 248 72ZM422 248C422 294.148 403.668 338.405 371.037 371.037C338.405 403.668 294.148 422 248 422C201.852 422 157.595 403.668 124.963 371.037C92.3321 338.405 74 294.148 74 248C74 201.852 92.3321 157.595 124.963 124.963C157.595 92.3321 201.852 74 248 74C294.148 74 338.405 92.3321 371.037 124.963C403.668 157.595 422 201.852 422 248Z" fill="#767522"/>
<path fill-rule="evenodd" clip-rule="evenodd" d="M95.5801 336C144.18 420.18 251.82 449.02 336 400.42C420.18 351.82 449.02 244.18 400.42 160C351.82 75.82 244.18 46.98 160 95.58C75.8201 144.18 46.9801 251.82 95.5801 336ZM334.13 399.19C251.33 446.37 145.93 418.13 97.8101 335.86L245.26 250.73L160.13 398.18L161.86 399.18L247 251.72V422H249V251.73L334.13 399.19ZM335.87 398.19C418.13 350.07 446.37 244.67 399.19 161.87L251.73 247H422V249H251.74L399.19 334.13L398.19 335.87L250.73 250.73L335.87 398.19ZM244.27 248.99L96.8001 334.14C49.6201 251.34 77.8601 145.94 160.12 97.82L245.26 245.27L97.8001 160.13L96.8001 161.86L244.27 247H74.0001V249H244.26L244.27 248.99ZM161.87 96.81L247 244.26V74H249V244.27L334.13 96.81L335.87 97.81L250.73 245.27L398.19 160.13C350.07 77.87 244.67 49.63 161.87 96.81Z" fill="#767522"/>
<path d="M223.76 115.2C224.59 114.98 225.43 114.8 226.27 114.68C226.77 114.63 227.27 114.75 227.69 115.01C227.99 115.49 228.17 116.04 228.19 116.61C228.154 116.753 228.083 116.886 227.983 116.996C227.884 117.105 227.759 117.189 227.62 117.24C227.12 117.32 226.63 117.37 226.13 117.39C224.33 117.64 222.63 118.34 220.85 118.72C219.43 119.03 219.05 119.76 219.35 121.22C219.79 123.43 220.85 125.7 222.8 126.88C223.45 127.18 224.06 127.52 224.65 127.92C224.826 128.078 224.961 128.276 225.044 128.497C225.128 128.718 225.157 128.955 225.13 129.19C225.005 129.389 224.832 129.554 224.628 129.67C224.425 129.787 224.195 129.852 223.96 129.86C222.885 129.819 221.836 129.519 220.901 128.986C219.967 128.454 219.174 127.704 218.59 126.8C217.72 125.45 217.22 123.39 216.65 121.87C215.93 119.99 215.79 119.83 213.75 120.24C213.17 120.34 212.6 120.48 212.03 120.67C210.65 121.07 210.33 121.46 210.52 122.87C210.82 125.33 210.36 126.67 210.05 129.1C209.75 131.37 208.9 133.43 208.11 135.52C208.01 135.82 207.88 136.09 207.71 136.34C207.31 136.89 206.72 137.24 206.16 136.83C205.99 136.663 205.863 136.458 205.788 136.232C205.713 136.006 205.694 135.765 205.73 135.53C206.1 134.16 206.6 132.82 207.08 131.48C208.08 128.8 208.37 125.91 207.93 123.08C207.61 121.11 207.45 121.92 205.52 122.21C204.11 122.42 202.71 122.71 201.3 122.95C200.92 123.08 200.5 123.13 200.1 123.09C199.79 123.01 199.64 121.84 199.48 121.53C199.41 121.43 199.72 120.93 199.93 120.88C200.71 120.66 201.63 120.5 202.41 120.33C203.36 120.09 204.28 119.75 205.16 119.33C206.32 118.91 206.43 118.53 205.92 117.49C204.838 115.398 203.224 113.629 201.24 112.36C200.32 111.73 199.39 111.1 198.54 110.38C198.3 110.18 198.34 109.67 198.25 109.29C198.69 109.19 199.23 108.89 199.55 109.04C202.738 110.444 205.503 112.657 207.57 115.46C207.95 116.06 208.37 116.64 208.84 117.18C209.16 117.51 209.7 117.92 210.07 117.86C212.18 117.51 212.13 117.53 214.22 117.07C214.575 117.006 214.891 116.806 215.1 116.513C215.309 116.22 215.395 115.856 215.34 115.5C215.31 113.87 215.21 112.24 215.2 110.61C215.2 107.47 215.52 106.83 216.57 105.81C216.7 105.43 217.76 105.11 218.11 105.12C218.33 105.196 218.527 105.325 218.684 105.496C218.841 105.667 218.953 105.875 219.01 106.1C219.17 106.88 217.88 107.25 217.68 109.4C217.76 111.34 218.18 112.63 218.34 114.56C218.44 115.62 218.98 116.01 220 115.86C220.59 115.79 221.17 115.67 221.75 115.52C221.74 115.56 223.75 115.15 223.76 115.2ZM150.93 145.7C150.9 146.53 150.87 147.39 150.21 148.13C150 148.23 149.83 147.99 149.68 147.77C149.624 147.685 149.56 147.605 149.49 147.53C149.39 147.42 149.3 147.29 149.22 147.15C149.14 147.008 149.043 146.878 148.93 146.76C148.07 145.92 147.16 146.01 146.63 147.05C146.16 148 145.75 148.97 145.38 149.96C143.86 153.9 142.47 157.88 141.9 162.09L141.82 162.5C141.69 163.17 141.55 163.9 142.34 164.37C142.89 164.67 143.4 163.85 143.51 162.18C143.77 158.34 145.05 154.79 146.5 151.28C146.68 150.8 146.93 150.33 147.23 149.91C147.334 149.736 147.502 149.609 147.698 149.557C147.894 149.505 148.103 149.531 148.28 149.63C148.4 149.69 148.5 149.79 148.56 149.91C148.9 150.41 149.19 150.95 149.47 151.49C149.73 151.96 149.98 152.44 150.27 152.91C150.335 153.011 150.419 153.098 150.518 153.165C150.617 153.233 150.728 153.281 150.846 153.305C150.963 153.329 151.084 153.33 151.201 153.307C151.319 153.283 151.431 153.237 151.53 153.17C151.66 153.079 151.764 152.954 151.83 152.81C152.03 152.11 152.16 151.4 152.21 150.67L152.41 147.94C152.5 146.54 152.59 145.14 152.73 143.74C152.71 143 152.95 142.29 153.41 141.72C153.73 141.22 154.11 141.96 154.45 142.61C154.58 142.85 154.71 143.09 154.82 143.24C155.16 143.89 155.54 144.51 155.96 145.11C156.149 145.266 156.368 145.382 156.604 145.449C156.84 145.516 157.087 145.533 157.33 145.5C157.61 145.46 157.96 144.96 158.05 144.6C158.1 144.35 158.07 144.08 158.05 143.8C158.02 143.544 158.02 143.286 158.05 143.03L158.27 141.48C158.54 139.6 158.8 137.72 159.24 135.88C159.49 134.88 160.09 133.98 160.94 133.38L161.42 133.11C162.41 132.58 163.7 131.88 162.64 131.09C162.23 130.833 161.744 130.722 161.263 130.777C160.781 130.831 160.333 131.047 159.99 131.39C158.59 132.53 157.35 133.79 157.19 135.77C157.09 137.14 156.91 138.5 156.7 139.85C156.57 140.7 156.02 140.87 155.4 140.29C155.224 140.119 155.057 139.939 154.9 139.75C154.722 139.53 154.528 139.323 154.32 139.13C153.04 138 151.98 138.33 151.62 140.07C151.46 140.9 151.37 141.75 151.28 142.6C151.2 143.33 151.12 144.05 151 144.77C150.96 145.07 150.94 145.38 150.93 145.69V145.7ZM163.51 153.52C163.49 153.7 163.18 154.85 162.77 154.22C161.93 152.97 161.27 152.03 160.62 151.11L160.48 150.91C160.429 150.799 160.355 150.7 160.263 150.619C160.17 150.539 160.062 150.479 159.945 150.443C159.828 150.407 159.705 150.396 159.583 150.411C159.462 150.426 159.345 150.467 159.24 150.53C159.1 150.614 158.986 150.735 158.91 150.88C158.38 151.64 158.01 152.5 157.81 153.41C157.61 154.65 157.51 155.9 157.4 157.15C157.34 157.9 157.28 158.65 157.2 159.38C157.15 159.71 157.04 160.19 156.57 160.29C156.3 160.149 156.054 159.967 155.84 159.75C155.286 158.86 154.678 158.005 154.02 157.19C152.54 155.62 151.22 155.91 150.47 157.89C150.236 158.477 150.065 159.087 149.96 159.71C149.3 164.41 149.03 169.16 149.16 173.91C149.19 174.33 149.26 174.75 149.41 175.15C149.46 175.31 149.75 175.54 149.85 175.51C150.18 175.33 150.43 175.05 150.57 174.71C150.68 173.48 150.73 172.44 150.78 171.28C150.827 170.093 150.88 168.906 150.94 167.72C151.02 165.96 151.09 164.21 151.22 162.46C151.32 161.41 151.52 160.36 151.78 159.35C151.92 158.69 152.5 158.49 152.91 158.98C153.47 159.61 153.97 160.28 154.41 161.01C154.76 161.65 155.08 162.31 155.41 162.96C155.78 163.72 156.16 164.49 156.58 165.22C156.79 165.59 157.42 166.02 157.78 165.92C158.14 165.82 158.43 165.21 158.58 164.75C158.64 164.339 158.64 163.921 158.58 163.51L158.64 162.37C158.75 159.91 158.86 157.45 159.04 154.99C159.056 154.745 159.127 154.507 159.246 154.293C159.365 154.078 159.531 153.893 159.73 153.75C160.08 153.58 160.38 154.19 160.56 154.53L160.58 154.58C160.92 155.28 161.24 155.98 161.55 156.68L162.15 158.04C162.48 158.73 162.97 159.38 163.81 159.14C164.65 158.92 164.88 158.14 164.88 157.4C164.88 157.09 164.86 156.77 164.83 156.46C164.789 156.038 164.779 155.613 164.8 155.19L164.85 154.37C164.98 152.12 165.12 149.87 165.38 147.66C165.82 145.84 166.68 145.29 167.21 144.95C167.57 144.72 167.78 144.59 167.61 144.22C166.87 142.65 164.95 143.49 164.41 145.14C164.11 146.25 163.89 147.39 163.79 148.54C163.69 149.302 163.646 150.071 163.66 150.84C163.65 151.61 163.64 152.44 163.51 153.52ZM103.13 219.56C105.99 218.33 107.67 220.13 109.63 220.16C111.76 220.19 113.84 220.66 115.97 220.82C117.89 220.97 119.83 220.97 122.63 221.07C118.26 217.43 114.47 214.38 110.81 211.19C109.375 210.001 108.137 208.594 107.14 207.02C105.62 204.46 106.38 202.02 108.79 200.52C111.19 199.04 114.83 199.38 116.17 201.69C117.35 203.69 118.01 205.99 119.04 208.43C119.98 207.93 121.04 207.35 122.13 206.83C125.24 205.29 128.38 205.06 131.49 206.8C133.25 207.77 133.84 209.24 133.42 211.24C132.98 213.4 132.17 214.12 129.34 214.56C129.93 213.77 130.35 213.26 130.72 212.69C132.1 210.61 131.55 209.19 129.14 208.51C128.123 208.173 127.048 208.046 125.981 208.138C124.913 208.229 123.875 208.536 122.93 209.04C120.83 210.17 118.87 211.45 116.61 212.81C117.19 213.57 117.81 214.28 118.48 214.95C120.3 216.48 122.15 217.97 124.03 219.43C125.93 220.89 126.79 221.13 130.66 221.65C131.49 224.2 130.92 225.25 128.7 224.71C123.17 223.37 117.5 223.58 111.93 222.73C109.72 222.33 107.53 221.78 105.38 221.1C104.7 220.94 104.18 220.34 103.13 219.56ZM113.26 209.31C114.42 209.78 115.33 209.54 115.81 208.63C116.91 206.34 114.61 202.18 112.15 201.97C109.91 201.79 108.63 203.43 109.41 205.54C109.744 206.408 110.26 207.195 110.922 207.849C111.584 208.502 112.378 209.007 113.25 209.33V209.31H113.26ZM106.79 274.31C107.83 274.26 108.39 273.44 108.95 272.96C109.014 272.809 109.127 272.683 109.269 272.602C109.412 272.52 109.577 272.488 109.74 272.51C110.41 272.53 110.5 273.33 110.51 273.73C110.51 274.83 110.48 275.64 111.71 276.27C112.16 276.5 114.29 276.79 116.08 277.14C116.42 277.27 116.78 277.33 117.15 277.33C120.19 277.61 118.8 277.5 121.82 277.84C123.62 278.04 124.54 278.04 126.35 278.3C127.45 278.46 127.25 277.7 127.1 276.64C127 276.21 126.93 275.76 126.92 275.31C126.905 275.202 126.932 275.092 126.995 275.003C127.058 274.914 127.153 274.852 127.26 274.83C127.367 274.797 127.48 274.785 127.591 274.796C127.703 274.808 127.811 274.841 127.909 274.896C128.007 274.95 128.093 275.023 128.162 275.112C128.231 275.2 128.282 275.302 128.31 275.41C128.48 275.88 128.76 276.83 128.88 277.31C129.18 278.58 129.58 278.63 130.93 278.83C133.43 279.2 134.54 279.12 137.03 279.43C137.53 279.5 138.43 279.53 138.93 279.65C139.43 279.77 140.45 280.05 140.57 281.03C140.492 281.337 140.326 281.613 140.091 281.825C139.856 282.037 139.563 282.174 139.25 282.22C138.03 282.11 137.05 282 135.83 281.86C134.1 281.66 132.37 281.42 130.64 281.26C129.58 281.16 129.77 281.46 129.86 282.53C129.99 283.03 130.07 283.55 130.11 284.06C130.08 284.33 129.79 284.52 129.49 284.7C128.69 285.2 128.44 284.38 128.29 283.88C128.18 283.52 128.09 283.15 128.03 282.78C127.79 281.11 127.82 281.06 126.23 280.89C122.85 280.55 125.17 280.57 121.8 280.33C118.41 279.77 116.08 279.57 113.86 279.27C112.98 279.21 112.43 279.28 112.14 280.67C111.87 281.47 111.85 282.07 110.98 281.72C110.78 281.63 110.57 281.53 110.38 281.42C108.18 280.21 105.64 278.4 103.43 277.19C102.85 276.87 102.4 276.49 102.48 275.83C102.493 275.59 102.598 275.365 102.773 275.201C102.948 275.037 103.18 274.947 103.42 274.95C103.9 274.89 104.37 274.77 104.84 274.68C105.48 274.52 106.14 274.39 106.79 274.31ZM150.9 326.17C152.69 326.32 154.9 325.18 156.26 323.73C157.22 322.7 157.64 322.79 158.53 323.53C159.33 324.18 159.52 324.92 158.98 326.13C158.61 326.93 158.12 327.68 157.53 328.35C155.966 330.129 154.372 331.883 152.75 333.61C150.786 335.748 148.799 337.864 146.79 339.96C146.01 340.78 145.09 341.42 144.26 342.18C143.363 343.015 142.492 343.879 141.65 344.77C141.45 344.97 141.87 345.61 142.1 345.7C142.64 345.84 143.2 345.88 143.74 345.8C146.44 345.4 147.41 346.34 150.04 344.45C151.32 343.55 152.94 342.71 154.1 341.42C155.4 339.97 155.45 339.87 156.79 338.49C158.29 336.92 157.49 337.92 159.05 336.4C159.183 336.293 159.337 336.216 159.502 336.175C159.668 336.135 159.84 336.131 160.007 336.164C160.174 336.198 160.332 336.267 160.469 336.369C160.606 336.47 160.719 336.6 160.8 336.75C161.12 337.25 160.74 337.59 160.33 338C159.47 338.86 159.13 339.1 158.26 339.95C156.01 342.14 156.85 341.1 154.53 343.19C152.66 344.87 150.98 346.53 149.04 348.09C148.07 348.87 146.24 350.17 146.54 350.93C146.86 351.55 148.84 351.88 149.91 351.82C151.02 351.69 152.11 351.49 153.19 351.19C154.98 350.82 156.79 349.19 158.18 347.77C161.28 344.47 161.43 344.47 164.58 341.17C165.54 340.15 166.26 339.93 166.62 340.48C166.98 341.04 166.7 341.73 165.7 342.79C163.66 344.96 164.65 343.84 162.53 345.91C160.106 348.274 157.615 350.568 155.06 352.79C153.69 353.98 153.48 354.1 152.05 355.19C151.82 355.36 150.9 355.99 151.08 356.34C151.33 356.5 151.58 356.79 151.84 356.8C152.5 356.87 153.18 356.9 153.84 356.9C155.09 356.9 156.02 357.66 155.49 357.74C154.99 357.94 154.47 358.03 153.94 358.04C153.24 358.16 152.51 358.17 151.81 358.07C151.184 358.029 150.569 357.883 149.99 357.64C149.03 357.23 148.87 356.15 149.7 355.29C150.38 354.51 151.11 353.79 151.89 353.12C150.91 353.35 149.91 353.46 148.91 353.45C147.982 353.485 147.057 353.332 146.19 353C145.3 352.84 144.59 351.18 145.07 350.24C145.612 349.306 146.213 348.407 146.87 347.55C146.72 347.26 146.11 347.32 145.72 347.33C144.22 347.33 142.72 347.47 141.24 347.48C140.44 347.48 139.62 347.41 139.34 346.37C139.234 345.929 139.252 345.467 139.393 345.036C139.535 344.605 139.793 344.222 140.14 343.93C141.05 342.863 142.025 341.855 143.06 340.91C146.1 338.46 147.3 336.6 149.96 333.68C151.37 332.11 152.78 330.53 154.17 328.95C154.54 328.57 154.87 328.15 155.15 327.7C155.22 327.59 155.38 327 154.85 327.01C152.97 327.08 149.82 328.16 150 328.33C150.35 328.65 150 329.88 149.82 330.09C149.5 330.39 149.42 330.48 148.5 329.96C147.43 329.36 145.48 328.96 145.33 328.09C145.322 327.928 145.354 327.766 145.424 327.619C145.494 327.473 145.599 327.346 145.73 327.25C146.15 326.88 146.61 326.56 147.11 326.32C148.024 325.888 148.777 325.177 149.26 324.29C149.365 324.139 149.509 324.019 149.676 323.942C149.843 323.864 150.027 323.833 150.21 323.85C150.376 323.955 150.513 324.097 150.613 324.266C150.712 324.435 150.769 324.625 150.78 324.82C150.78 325.27 150.82 325.72 150.9 326.17ZM227.28 382.46L229.68 383.1C231.03 383.41 228.95 381.51 228.52 381.35C227.96 381.12 227.39 380.87 226.83 380.62C224.87 379.75 222.9 378.87 220.63 378.95C217.96 379.05 217.91 379.19 217.16 381.36L216.96 381.96C216.346 383.621 215.218 385.043 213.74 386.02C213.283 386.349 212.735 386.527 212.172 386.528C211.609 386.53 211.059 386.356 210.6 386.03C210.209 385.771 209.903 385.402 209.721 384.97C209.54 384.537 209.491 384.06 209.58 383.6C209.86 382.49 210.22 381.39 210.64 380.32C211.77 377.7 211.8 376.79 209.12 376.72C207.62 376.72 206.13 376.52 204.68 376.15C202.741 375.562 200.835 374.871 198.97 374.08L198.18 373.77L197.97 373.67C197.27 373.38 196.62 373.11 196.02 373.87C195.52 374.52 195.84 375.02 196.96 375.57C198.14 376.15 199.38 376.62 200.65 376.99C202.1 377.39 203.42 377.7 204.75 378.01C205.87 378.27 206.99 378.53 208.2 378.85C208.13 379.45 208.03 380.03 207.95 380.59C207.728 381.767 207.608 382.962 207.59 384.16C207.66 388.12 211.32 390.04 214.67 387.98C216.13 387.12 217.21 386.44 217.87 384.91C218.1 384.41 218.31 383.77 218.53 383.12C218.75 382.44 218.98 381.76 219.23 381.2C221.93 381 224.4 381.68 227.28 382.46ZM200.83 367.04C200 366.7 198.04 365.88 197.95 366.48C197.86 368.5 198.79 368.74 199.88 369.03L199.97 369.05C202.725 369.897 205.518 370.614 208.34 371.2C211.4 371.82 214.39 372.64 217.38 373.55C221.08 374.66 224.85 375.51 228.62 376.35C229.47 376.55 230.32 376.75 231.17 376.93C231.97 376.93 232.75 376.69 233.41 376.26C233.4 375.76 232.59 375.64 231.91 375.54C231.691 375.509 231.474 375.466 231.26 375.41C230.72 375.25 230.16 375.15 229.6 375.05C229.02 374.94 228.44 374.83 227.88 374.65C225.49 373.91 223.12 373.15 220.74 372.37L215 370.52C213.907 370.142 212.783 369.861 211.64 369.68C207.95 369.28 204.34 368.4 200.88 367.06L200.83 367.04ZM295.1 385.9C295.588 385.878 296.061 385.729 296.473 385.468C296.886 385.206 297.222 384.842 297.45 384.41C298.047 383.57 298.734 382.799 299.5 382.11C299.65 381.97 299.97 382.01 300.21 381.95C300.74 382.77 300.26 383.27 299.78 383.69C298.76 384.59 297.71 385.45 296.67 386.33C296.08 386.83 295.49 387.32 294.91 387.83C294.33 388.33 293.71 388.23 293.53 387.35C293.37 386.6 293.24 385.83 293.1 385.04C291.58 385.82 291.58 385.82 288.32 391.06C287.973 390.807 287.672 390.496 287.43 390.14C286.83 388.79 286.31 387.39 285.73 385.94C285.254 386.058 284.815 386.291 284.45 386.619C284.086 386.947 283.808 387.359 283.64 387.82C283.09 388.99 282.66 390.22 282.14 391.43C281.929 391.975 281.665 392.498 281.35 392.99C281.296 393.086 281.22 393.169 281.13 393.233C281.04 393.297 280.936 393.34 280.827 393.359C280.718 393.378 280.607 393.373 280.5 393.344C280.393 393.314 280.294 393.262 280.21 393.19C280.098 393.093 280.018 392.964 279.98 392.82C279.863 392.452 279.783 392.074 279.74 391.69C279.46 390.09 279.21 388.49 278.9 386.89C278.77 386.21 278.5 385.56 278.26 384.78C277.26 385.35 276.46 386.23 276.01 387.3C275.855 387.714 275.596 388.082 275.258 388.367C274.92 388.653 274.515 388.847 274.08 388.93C274.12 390.03 274.32 391.09 273.46 391.86C273.152 391.791 272.884 391.603 272.714 391.337C272.543 391.071 272.485 390.749 272.55 390.44C272.8 385.98 272.96 381.5 273.32 377.05C273.54 375.25 273.9 373.46 274.42 371.72C274.783 370.459 274.651 369.107 274.05 367.94C272.55 365.06 270.35 362.88 266.98 362.4C265.88 362.33 264.79 362.34 263.7 362.43C264.03 362.12 264.21 361.83 264.45 361.76C265.006 361.595 265.581 361.501 266.16 361.48C267.661 361.408 269.158 361.679 270.537 362.273C271.917 362.868 273.142 363.77 274.12 364.91L275.53 366.45C276.14 365.95 276.63 365.33 276.99 364.63C277.305 363.956 277.684 363.313 278.12 362.71C278.197 362.65 278.287 362.609 278.382 362.59C278.478 362.571 278.576 362.575 278.67 362.6C278.77 362.62 278.85 362.67 278.92 362.74C279.011 362.859 279.071 362.999 279.096 363.148C279.12 363.296 279.108 363.448 279.06 363.59C278.51 364.83 277.88 366.04 277.3 367.27C277.093 367.675 276.979 368.122 276.967 368.577C276.955 369.032 277.045 369.484 277.23 369.9C278.49 372.78 278.86 375.9 279.31 379C279.79 382.31 280.34 385.54 280.87 388.81C280.97 389.14 281.08 389.46 281.23 389.77C281.5 389.26 281.63 388.95 281.81 388.67C282.39 387.73 282.98 386.78 283.58 385.87C284.55 384.39 285.06 382.85 284.47 381.09C283.92 379.57 283.53 377.99 283.31 376.39C283.19 375.39 282.65 374.42 282.47 373.41C282.37 372.65 282.38 371.88 282.54 371.13C282.612 370.963 282.725 370.817 282.868 370.705C283.011 370.593 283.181 370.519 283.36 370.49C283.64 370.49 283.91 370.89 284.18 371.15C284.21 371.19 284.21 371.27 284.22 371.34C284.52 375.04 285.76 378.56 286.49 382.18C286.86 383.96 287.44 385.68 287.95 387.44C288.08 387.72 288.25 387.98 288.44 388.22C288.8 387.96 289.14 387.66 289.46 387.34C290.39 386.18 291.26 384.96 292.18 383.79C292.53 383.35 292.8 382.86 292.52 382.36C291.75 381.03 291.87 379.49 291.48 378.06C290.62 375.01 290.02 371.88 289.38 368.76C289.237 367.871 289.203 366.967 289.28 366.07C289.314 365.925 289.382 365.791 289.48 365.68C289.578 365.568 289.701 365.482 289.84 365.43C289.995 365.421 290.149 365.448 290.291 365.509C290.434 365.569 290.56 365.662 290.66 365.78C290.93 366.14 291.1 366.57 291.14 367.02C291.18 369.38 292 371.6 292.41 373.89C292.87 376.49 293.61 379.09 294.17 381.69C294.4 382.76 294.49 383.86 294.67 384.94C294.79 385.27 294.93 385.6 295.1 385.9ZM276 372.43C274.74 376.81 274.54 381.23 274.29 385.65C274.34 386.05 274.43 386.44 274.57 386.81C275.788 385.864 276.805 384.684 277.56 383.34C277.72 382.99 277.79 382.61 277.76 382.22C277.66 379.17 277.2 376.15 276.36 373.22C276.26 372.95 276.15 372.68 276.01 372.43H276ZM344.96 333.41C344.48 332.41 344.96 333.41 344.75 332.9C343.64 330.22 341.37 329.38 338.84 330.71C338.157 331.136 337.655 331.8 337.434 332.574C337.212 333.348 337.286 334.177 337.64 334.9C338.44 336.58 339.735 337.976 341.35 338.9C343.247 340.142 345.255 341.204 347.35 342.07C349.29 342.77 350.15 344.24 350.7 345.85C351.34 347.68 351.47 349.65 351.07 351.56C350.688 353.412 349.628 355.054 348.099 356.166C346.569 357.278 344.68 357.778 342.8 357.57C338.87 357.15 333.83 353.67 332.98 348.72C332.505 345.896 331.371 343.224 329.67 340.92C327.99 338.64 326.07 336.95 322.97 337.32C322.322 337.293 321.68 337.182 321.06 336.99C320.16 336.99 321.42 335.99 321.68 335.85C322.521 335.313 323.443 334.915 324.41 334.67C325.035 334.591 325.67 334.648 326.271 334.838C326.872 335.028 327.424 335.346 327.89 335.77C330.26 337.64 331.81 340.14 333.11 342.77C333.71 344.05 334.15 345.4 334.41 346.79C334.857 348.981 335.956 350.986 337.562 352.542C339.168 354.097 341.206 355.132 343.41 355.51C346.41 356.08 348.75 354.51 349.38 351.51C350.17 347.83 349.02 344.59 345.12 343.25C342.073 342.238 339.33 340.478 337.14 338.13C336.36 337.3 335.37 336.26 335.34 335.25C335.29 333.93 336.01 332.55 336.54 331.25C336.81 330.72 337.21 330.27 337.71 329.95C339.21 328.79 340.91 327.82 342.81 328.6C343.462 328.756 344.072 329.054 344.596 329.473C345.12 329.891 345.545 330.42 345.842 331.021C346.139 331.622 346.3 332.281 346.313 332.952C346.327 333.622 346.193 334.287 345.92 334.9C345.4 334.93 345.29 334.15 344.96 333.41Z" fill="#767522"/>
<path fill-rule="evenodd" clip-rule="evenodd" d="M373.75 267.35C373.75 267.15 373.69 266.94 373.6 266.75C373.497 266.679 373.382 266.628 373.26 266.6C373.06 266.58 372.85 266.6 372.65 266.64C369.57 267.43 367.7 269.46 366.45 272.34C364.89 275.92 364.05 281.01 365 284.36C365.452 285.834 366.087 287.245 366.89 288.56C367.45 289.52 368.33 290.38 369.19 291.21C369.62 291.62 370.04 292.03 370.4 292.44C371.95 294.17 375.4 293.68 377.24 292.47C379.21 291.19 380.09 287.73 379.13 285.1C378.44 283.2 376.61 282.28 373.93 282.73C373.04 282.95 372.23 283.39 371.54 284C371.17 284.3 370.68 285.08 370.19 285.83C369.91 286.28 369.62 286.73 369.37 287.06C368.268 285.344 367.523 283.424 367.177 281.414C366.832 279.404 366.894 277.345 367.36 275.36C368.09 272.38 369.1 269.51 372.72 268.72C373.022 268.643 373.289 268.465 373.476 268.216C373.663 267.967 373.76 267.661 373.75 267.35ZM373.32 291.02C372.1 290.57 371.15 289.74 370.96 288.62C371.56 285.31 373.29 284.16 376.09 284.87C376.659 284.968 377.17 285.279 377.519 285.739C377.868 286.2 378.029 286.775 377.97 287.35C377.98 289.06 376.73 290.49 375.69 291.19C374.89 291.34 374.09 291.29 373.32 291.02Z" fill="#767522"/>
<path fill-rule="evenodd" clip-rule="evenodd" d="M383.6 275.65V274.65C385.5 275.62 386.73 276.56 387.02 278.17C387.63 281.25 387.4 284.44 386.34 287.4C386.035 288.453 385.495 289.424 384.761 290.238C384.026 291.052 383.117 291.689 382.1 292.1C381.75 292.25 381.33 293.14 381.46 293.34C381.621 293.583 381.83 293.79 382.074 293.948C382.319 294.106 382.593 294.212 382.88 294.26C384.52 294.31 385.56 293.35 386.34 292C388.642 288.117 389.65 283.603 389.22 279.11C389.081 277.681 388.641 276.297 387.93 275.05C386.63 272.54 384.38 271.2 382.15 270C381.283 269.502 380.312 269.214 379.314 269.156C378.316 269.099 377.318 269.275 376.4 269.67C374.08 270.71 372.77 272.68 372.96 275.14C373.13 277.74 373.95 280.34 376.69 281.54C379.74 282.88 383.5 280.38 383.59 277.06V275.65H383.6ZM374.9 273.51C375.72 271.68 377.53 271.13 379.64 272.07C381.31 273.03 382.64 275.07 381.27 278.07C381.127 278.46 380.9 278.814 380.606 279.108C380.313 279.402 379.958 279.628 379.568 279.77C379.178 279.913 378.761 279.969 378.347 279.935C377.933 279.9 377.531 279.776 377.17 279.57C376.104 279.025 375.281 278.101 374.863 276.979C374.445 275.857 374.461 274.62 374.91 273.51H374.9Z" fill="#767522"/>
<path d="M364.38 206.9C366.45 206.95 366.5 210.21 368.03 212.48C371.12 212.85 373.97 211.5 376.93 210.93C379.88 210.37 382.6 209.64 385.59 208.96C386.09 206.36 384.76 203.94 386.23 201.46C386.38 201.21 387.19 200.35 387.44 201.16C387.69 201.99 387.86 202.32 387.75 202.94C387.31 205.63 386.89 207.27 388.07 209.84C388.23 210.31 388.25 210.81 388.14 211.29C387.78 213.46 388.37 215.27 389.57 217.15C390.42 218.49 390.51 220.33 390.82 221.97C390.831 222.078 390.818 222.188 390.784 222.291C390.749 222.395 390.693 222.489 390.62 222.57C390.547 222.652 390.458 222.719 390.358 222.765C390.258 222.812 390.15 222.837 390.04 222.84C389.69 222.74 389.74 222.81 389.69 222.74C387.61 219.18 387.35 219.05 383.49 219.94C380.39 220.63 377.31 221.34 374.28 222.24C372.01 222.94 371.6 223.75 371.98 226.11C372.35 228.47 371.98 226.83 372.38 229.11C372.56 229.94 372.6 230.79 372.5 231.64C372.39 232.37 371.82 233.08 370.96 232.71C370.52 232.52 370.28 231.83 369.97 231.35C369.85 231.05 369.78 230.75 369.76 230.43C370.46 226.68 369.78 227.66 368.86 224.08C368.61 223.16 367.98 222.17 368.14 221.33C367.91 218.53 367.34 217.66 366.01 215.03C365.51 213.59 365.44 211.43 364.47 210.33C362.97 208.18 361.94 208.01 364.37 206.91L364.38 206.9ZM370.99 220.4C375.99 218.2 381.41 217.1 386.87 217.18C386.57 215.66 386.03 212.77 385.81 211.6C381.95 211.38 370.31 214.43 369.51 215.98C369.81 216.68 370.44 219.2 370.99 220.4ZM339.27 148.6C338.52 144.28 340.46 141.54 343.35 139.37C344.45 138.55 344.75 138.65 345.96 139.88C346.09 140.57 344.65 141.13 344.01 141.8C342.738 142.973 341.829 144.486 341.39 146.16C340.93 148.2 341.39 149.27 343.19 150.34C343.79 150.65 344.37 151.04 344.89 151.47C346.61 153.11 348.48 152.99 350.25 152.1C351.691 151.268 353.065 150.325 354.36 149.28C355.06 148.78 355.7 148.25 356.55 149.01C357.05 149.78 355.41 151.65 353.25 153.21C351.67 154.35 349.78 154.05 347.93 154.36C348.39 157 348.32 159.44 347.07 161.65C345.33 164.73 342.87 166.63 339.47 167.25C338.149 167.539 336.775 167.459 335.496 167.02C334.218 166.581 333.085 165.799 332.22 164.76C331.08 163.52 329.98 162.27 329.42 160.65C328.06 156.61 328.86 153.74 332.08 151.18C333.541 149.934 335.342 149.154 337.25 148.94C337.89 148.85 338.52 148.74 339.27 148.59V148.6ZM341.61 163.2C343.8 161.38 344.89 159.78 345.55 157.57C346.05 155.9 345.69 154.86 344.15 154.11C343.189 153.689 342.355 153.023 341.73 152.18C341.48 151.764 341.133 151.414 340.719 151.162C340.304 150.909 339.835 150.761 339.35 150.73C337.26 150.73 335.29 151.3 333.92 152.96C332.73 154.39 330.64 155.45 331.62 157.94C331.65 158.102 331.629 158.27 331.56 158.42C330.71 160.14 331.9 161.79 332.81 162.94C334.4 165.01 337.99 165.5 340.14 164.22C340.73 163.88 341.26 163.44 341.61 163.2ZM283.52 112.81C283.52 113.39 284.05 112.71 284.13 112.61C285.63 110.73 287.68 110.06 289.85 109.44C291.12 109.08 293.65 109.17 294.84 109.88C297.23 111.26 297.3 111.84 297.22 114.9C297.118 115.846 296.954 116.785 296.73 117.71C296.65 118.01 296.07 118.45 295.88 118.37C295.5 118.22 294.98 118.12 294.98 117.42C295.01 115.72 295.61 114.47 295.2 112.7C295.096 112.355 294.902 112.044 294.639 111.798C294.375 111.552 294.052 111.38 293.7 111.3C292.13 110.72 289.2 111.13 288.1 112.26C286.76 113.65 285.2 114.46 284.2 116.11C282.664 118.575 281.581 121.294 281 124.14C280.64 126.09 279.73 127.89 279.05 129.75C278.8 130.4 278.58 131.15 277.68 130.86C276.93 130.61 276.86 129.94 276.82 129.19C276.8 127.03 277.24 124.88 278.11 122.89C279.41 119.39 280.51 115.86 280.36 112.03C280.35 111.51 280.36 110.98 280.29 110.46C279.89 107.19 277.72 106.42 274.66 107.09C273.02 107.45 272.28 107.87 271.02 110.43C270.88 110.75 270.72 111.05 270.55 111.34C270.18 111.85 269.63 112.14 269.06 111.78C268.812 111.583 268.634 111.311 268.553 111.005C268.472 110.698 268.492 110.374 268.61 110.08C269.19 108.78 269.58 108.4 270.54 106.6C271.17 105.89 271.71 105.03 272.24 104.9C274.8 104.2 276.71 104.28 279.14 105.64C280.96 106.69 281.98 108.46 282.76 110.41C283.09 111.13 283.26 111.91 283.52 112.81Z" fill="#767522"/>
</g>
<defs>
<clipPath id="clip0_25_2">
<rect width="496" height="496" fill="white"/>
</clipPath>
</defs>
</svg>
